<?xml version="1.0" encoding="UTF-8"?>
<svg width="32px" height="32px" viewBox="0 0 32 32" version="1.1" xmlns="http://www.w3.org/2000/svg" xmlns:xlink="http://www.w3.org/1999/xlink">
    <title>agriculture</title>
    <g id="Wizard-3" stroke="none" stroke-width="1" fill="none" fill-rule="evenodd">
        <g transform="translate(-720.000000, -722.000000)" fill-rule="nonzero" id="1">
            <g transform="translate(199.000000, 634.000000)">
                <g id="Group-2" transform="translate(20.000000, 20.000000)">
                    <g id="Group" transform="translate(491.000000, 58.000000)">
                        <g transform="translate(10.000000, 10.000000)" id="fertilizer">
                            <polygon id="Path" fill="#F9922D" points="1.94366387 0.485647059 23.5442017 0.485647059 23.5442017 3.27905882 1.94366387 3.27905882"></polygon>
                            <polygon id="Path" fill="#F9922D" points="1.94366387 28.7209412 23.5442017 28.7209412 23.5442017 31.5143529 1.94366387 31.5143529"></polygon>
                            <path d="M23.5442017,3.27905882 C23.5442017,3.27905882 25.0022185,9.96194958 25.0022185,15.8908235 L25.0022185,16.1118655 C25.0022185,22.039395 23.5442017,28.7236303 23.5442017,28.7236303 L1.94366387,28.7236303 C1.94366387,28.7236303 0.485647059,22.0380504 0.485647059,16.110521 L0.485647059,15.889479 C0.485647059,9.96194958 1.94366387,3.27905882 1.94366387,3.27905882 L23.5442017,3.27905882 Z" id="Path" fill="#2EB74E"></path>
                            <path d="M29.6922353,29.2321345 C29.6943866,29.1896471 29.6986891,29.1479664 29.6986891,29.1049412 C29.6982783,27.7803246 28.6813417,26.6777562 27.3610756,26.5704874 C27.501557,25.8270264 27.3027487,25.0596695 26.8189374,24.4779515 C26.3351262,23.8962334 25.6168476,23.5609167 24.8602353,23.563563 C24.8034958,23.563563 24.7481008,23.5684034 24.6921681,23.5721681 C24.5541996,22.143827 23.3539134,21.0538941 21.9189244,21.0538941 C20.4839353,21.0538941 19.2836491,22.143827 19.1456807,23.5721681 C19.0918992,23.5686723 19.0381176,23.5638319 18.9816471,23.5638319 C18.2252017,23.5616714 17.5072375,23.8971219 17.023534,24.4787103 C16.5398305,25.0602988 16.3408334,25.827371 16.4808067,26.5707563 C15.160647,26.6781574 14.1438615,27.7806888 14.1434622,29.1052101 C14.1434622,29.1482353 14.1477647,29.189916 14.1496471,29.2324034 C13.0843496,29.4750311 12.3283685,30.4220439 12.3277983,31.5146218 L31.5146218,31.5146218 C31.51422,30.4217477 30.7579008,29.4744794 29.6922353,29.2321345 L29.6922353,29.2321345 Z" id="Path" fill="#FFDD33"></path>
                            <circle id="Oval" fill="#FFEFC2" cx="12.3275294" cy="16" r="6.76840336"></circle>
                            <g id="Group" transform="translate(9.075630, 11.159664)" fill="#2EB74E">
                                <path d="M3.25189916,8.12826891 C3.25189916,6.33329068 1.79686057,4.8781317 0.00188235294,4.87798319 C0.00188235294,6.67296142 1.45692094,8.1281204 3.25189916,8.12826891 L3.25189916,8.12826891 Z" id="Path"></path>
                                <path d="M3.25189916,4.6330084 C4.52107649,3.36380359 4.52107649,1.30604515 3.25189916,0.0368403361 C1.98272183,1.30604515 1.98272183,3.36380359 3.25189916,4.6330084 L3.25189916,4.6330084 Z" id="Path"></path>
                                <path d="M3.25189916,8.12826891 C3.25204765,6.33324719 4.70716315,4.87813168 6.50218487,4.87798319 C6.50203638,6.67300492 5.04692088,8.12812042 3.25189916,8.12826891 Z" id="Path"></path>
                            </g>
                            <g id="Group" fill="#441D03">
                                <path d="M24.4149244,27.0214454 C24.1550257,27.0214454 23.9443361,27.2321349 23.9443361,27.4920336 C23.9443361,27.7519323 24.1550257,27.9626218 24.4149244,27.9626218 C25.0300574,27.9633627 25.5285365,28.4618418 25.5292773,29.0769748 C25.5292773,29.3368735 25.7399668,29.547563 25.9998655,29.547563 C26.2597643,29.547563 26.4704538,29.3368735 26.4704538,29.0769748 C26.4691202,27.9422901 25.5496091,27.022779 24.4149244,27.0214454 L24.4149244,27.0214454 Z" id="Path"></path>
                                <path d="M21.6758319,24.8080672 C20.5295197,24.809549 19.6006611,25.7385279 19.5993277,26.8848403 C19.5993277,27.144739 19.8100173,27.3554286 20.069916,27.3554286 C20.3298147,27.3554286 20.5405042,27.144739 20.5405042,26.8848403 C20.5410969,26.2580183 21.04901,25.7499849 21.6758319,25.7492437 C21.9357306,25.7492437 22.1464202,25.5385542 22.1464202,25.2786555 C22.1464202,25.0187568 21.9357306,24.8080672 21.6758319,24.8080672 L21.6758319,24.8080672 Z" id="Path"></path>
                                <path d="M15.5778151,15.5673277 C14.5141307,15.5681153 13.5019221,16.025308 12.7981176,16.8228571 L12.7981176,15.9731092 C14.118455,14.5044878 14.0579517,12.259248 12.660437,10.8638655 C12.4765955,10.6802152 12.1787322,10.6802152 11.9948908,10.8638655 C10.6019769,12.2611868 10.5414571,14.5026613 11.8569412,15.9731092 L11.8569412,16.8228571 C11.1534312,16.0250636 10.1411858,15.5678099 9.07751261,15.5673277 C8.95270485,15.5673277 8.83300889,15.6169074 8.74475647,15.7051598 C8.65650406,15.7934122 8.60692437,15.9131082 8.60692437,16.037916 C8.60997385,17.908994 10.0010531,19.4872232 11.8569412,19.7251765 L11.8569412,20.8034958 C11.8569412,21.0633945 12.0676307,21.274084 12.3275294,21.274084 C12.5874281,21.274084 12.7981176,21.0633945 12.7981176,20.8034958 L12.7981176,19.7251765 C14.6541124,19.4873469 16.0453364,17.9090841 16.0484034,16.037916 C16.0484034,15.7780173 15.8377138,15.5673277 15.5778151,15.5673277 L15.5778151,15.5673277 Z M12.3277983,11.9303529 C12.9692022,12.8745503 12.9692022,14.1146262 12.3277983,15.0588235 C11.6872919,14.1143504 11.6872919,12.8748261 12.3277983,11.9303529 L12.3277983,11.9303529 Z M9.59677311,16.555563 C10.7179562,16.7709291 11.594398,17.64833 11.8085378,18.7697479 C10.6877455,18.5545702 9.81140588,17.6778044 9.59677311,16.5569076 L9.59677311,16.555563 Z M12.8467899,18.7697479 C13.0614604,17.648773 13.937927,16.7719868 15.0588235,16.5569076 C14.8441531,17.6778825 13.9676865,18.5546687 12.8467899,18.7697479 Z" id="Shape"></path>
                                <path d="M12.3275294,8.7610084 C8.32957976,8.76115692 5.08880672,12.0022296 5.08880672,16.0001793 C5.08880672,19.9981289 8.32993829,23.2389916 12.327888,23.2389916 C16.3258376,23.2389916 19.5667899,19.9979497 19.5667899,16 C19.5621958,12.0038148 16.3237147,8.76545404 12.3275294,8.7610084 L12.3275294,8.7610084 Z M12.3275294,22.2978151 C8.84937717,22.2976666 6.0299832,19.477973 6.0299832,15.9998207 C6.0299832,12.5216685 8.84973571,9.70218488 12.327888,9.70218488 C15.8060402,9.70218488 18.6256134,12.5218478 18.6256134,16 C18.62176,19.4766948 15.8042244,22.2941101 12.3275294,22.2978151 L12.3275294,22.2978151 Z" id="Shape"></path>
                                <path d="M30.1609412,28.8806723 C30.0572857,27.5829342 29.1377668,26.4957383 27.8752269,26.1781513 C27.8752269,26.1544874 27.8752269,26.1308235 27.8752269,26.1074286 C27.8730372,24.5332482 26.6616633,23.2249551 25.0923025,23.1018487 C25.0681008,22.9961681 25.038521,22.8937143 25.003563,22.792605 C25.2973323,20.5770184 25.4541343,18.3454183 25.4730756,16.110521 L25.4730756,15.889479 C25.4730756,10.2365042 24.1435966,3.83462185 24.0150588,3.22931092 L24.0150588,0.485915966 C24.0150588,0.226017261 23.8043693,0.0153276541 23.5444706,0.0153276541 L8.20168067,0.0153276541 C7.94178197,0.0153276541 7.73109244,0.226017261 7.73109244,0.485915966 C7.73109244,0.745814672 7.94178197,0.956504202 8.20168067,0.956504202 L23.0738824,0.956504202 L23.0738824,2.80847059 L2.41452101,2.80847059 L2.41452101,0.956504202 L6.01411765,0.956504202 C6.27401635,0.956504202 6.48470588,0.745814672 6.48470588,0.485915966 C6.48470588,0.226017261 6.27401635,0.0153276541 6.01411765,0.0153276541 L1.94393277,0.0153276541 C1.81910314,0.0153276541 1.6993657,0.0648131019 1.6110978,0.153080996 C1.52282991,0.24134889 1.47327315,0.361086334 1.47334454,0.485915966 L1.47334454,3.22877311 C1.34453782,3.83542857 0.0153277311,10.2367731 0.0153277311,15.889479 L0.0153277311,16.110521 C0.0153277311,21.7632269 1.34453782,28.1645714 1.47334454,28.7706891 L1.47334454,31.5135462 C1.47327315,31.6383759 1.52282991,31.7581133 1.6110978,31.8463812 C1.6993657,31.9346491 1.81910314,31.9842058 1.94393277,31.9841345 L21.524437,31.9841345 C21.7843357,31.9841345 21.9950252,31.7734449 21.9950252,31.5135462 C21.9950252,31.2536475 21.7843357,31.042958 21.524437,31.042958 L18.0208403,31.042958 C18.2130789,30.5605043 18.6795821,30.2436101 19.1989244,30.2426891 C19.4588231,30.2426891 19.6695126,30.0319995 19.6695126,29.7721008 C19.6695126,29.5122021 19.4588231,29.3015126 19.1989244,29.3015126 C18.1593589,29.3030974 17.2607703,30.0274265 17.038521,31.042958 L12.8570084,31.042958 C13.0309241,30.3652197 13.5707164,29.8425751 14.2537143,29.6906218 C14.4765398,29.64 14.6308563,29.4367013 14.6196975,29.2084706 L14.6164706,29.1565714 C14.6164706,29.1393613 14.6137815,29.1218824 14.6137815,29.1044034 C14.618882,28.0269557 15.4449362,27.1312765 16.5184538,27.0391933 C16.6511536,27.028534 16.7731298,26.9621677 16.8541576,26.8565393 C16.9351855,26.750911 16.9676827,26.615905 16.9435966,26.4849748 C16.9199367,26.3608691 16.9077843,26.2348441 16.9072941,26.1085042 C16.9084799,24.9633622 17.8365051,24.035337 18.9816471,24.0341513 C19.0133782,24.0341513 19.0445714,24.0365714 19.0757647,24.0387227 L19.1163697,24.0414118 C19.3697227,24.0572153 19.5899508,23.8692302 19.6141176,23.6165378 C19.7289256,22.4295765 20.7264237,21.5239055 21.9189244,21.5239055 C23.1114251,21.5239055 24.1089232,22.4295765 24.2237311,23.6165378 C24.2474988,23.8701078 24.4689889,24.0585593 24.7230924,24.0414118 L24.7580504,24.0389916 C24.7919328,24.0365714 24.8258151,24.0338824 24.8602353,24.0338824 C25.4771452,24.0313092 26.0629193,24.3045911 26.457316,24.7789703 C26.8517127,25.2533496 27.0134507,25.8791732 26.8982857,26.4852437 C26.8741135,26.6161429 26.9065417,26.7511547 26.9875283,26.856796 C27.0685148,26.9624373 27.1904739,27.0288131 27.3231597,27.0394622 C28.3967236,27.1315368 29.2228611,28.0271799 29.2281008,29.1046723 C29.2281008,29.1218824 29.2281008,29.1385546 29.2256807,29.1554958 L29.2221849,29.2092773 C29.2110006,29.4374266 29.3651811,29.6406954 29.5878992,29.6914286 C30.2709276,29.843325 30.8107452,30.365994 30.984605,31.0437647 L27.2771765,31.0437647 C27.0172778,31.0437647 26.8065882,31.2544542 26.8065882,31.5143529 C26.8065882,31.7742516 27.0172778,31.9849413 27.2771765,31.9849413 L31.514084,31.9849413 C31.6389137,31.9849413 31.7586511,31.9354558 31.846919,31.8471879 C31.9351869,31.75892 31.9847065,31.6391826 31.9847065,31.5143529 C31.9904596,30.3404904 31.2618002,29.2882212 30.1609412,28.8806723 L30.1609412,28.8806723 Z M11.8967395,31.0424202 L2.41452101,31.0424202 L2.41452101,29.1904538 L13.0818151,29.1904538 C12.4494846,29.619577 12.0210589,30.2894843 11.8967395,31.0434958 L11.8967395,31.0424202 Z M21.9189244,20.581916 C20.4019682,20.5756713 19.0836057,21.6224287 18.7458151,23.1013109 C17.1775423,23.2262839 15.9680113,24.5344542 15.9661176,26.1076975 L15.9661176,26.1784202 C14.9303114,26.4401635 14.1077737,27.2261576 13.7992605,28.2490084 L2.32685714,28.2490084 C2.02810084,26.775395 0.955428571,21.1331765 0.955428571,16.1091765 L0.955428571,15.8881345 C0.955428571,10.8641345 2.02702521,5.22191597 2.32685714,3.74830252 L23.1612773,3.74830252 C23.4597647,5.22191597 24.5327059,10.8641345 24.5327059,15.8881345 L24.5327059,16.1091765 C24.5206212,17.9154064 24.4115566,19.7196845 24.2059832,21.5142185 C23.5960618,20.9146287 22.7742044,20.5798945 21.9189244,20.5827227 L21.9189244,20.581916 Z" id="Shape"></path>
                                <path d="M25.0621849,31.0434958 L23.8521008,31.0434958 C23.5922021,31.0434958 23.3815126,31.2541853 23.3815126,31.514084 C23.3815126,31.7739827 23.5922021,31.9846723 23.8521008,31.9846723 L25.0621849,31.9846723 C25.3220836,31.9846723 25.5327731,31.7739827 25.5327731,31.514084 C25.5327731,31.2541853 25.3220836,31.0434958 25.0621849,31.0434958 L25.0621849,31.0434958 Z" id="Path"></path>
                                <path d="M8.67200123,5.55159664 C8.67125927,5.29232808 8.46095025,5.08250004 8.20168067,5.08235294 L4.28826891,5.08235294 C4.0283702,5.08235294 3.81768067,5.29304247 3.81768067,5.55294118 C3.81768067,5.81283988 4.0283702,6.02352941 4.28826891,6.02352941 L8.20168067,6.02352941 C8.32665312,6.02338699 8.44644251,5.97356836 8.53465999,5.88504825 C8.62287747,5.79652814 8.67228557,5.67656884 8.67200123,5.55159664 L8.67200123,5.55159664 Z" id="Path"></path>
                                <path d="M10.0896807,6.02352941 L11.1596639,6.02352941 C11.4195626,6.02352941 11.6302521,5.81283988 11.6302521,5.55294118 C11.6302521,5.29304247 11.4195626,5.08235294 11.1596639,5.08235294 L10.0896807,5.08235294 C9.82978197,5.08235294 9.61909244,5.29304247 9.61909244,5.55294118 C9.61909244,5.81283988 9.82978197,6.02352941 10.0896807,6.02352941 Z" id="Path"></path>
                            </g>
                        </g>
                    </g>
                </g>
            </g>
        </g>
    </g>
</svg>