<?xml version="1.0" encoding="iso-8859-1"?>
<!-- Generator: Adobe Illustrator 19.0.0, SVG Export Plug-In . SVG Version: 6.00 Build 0)  -->
<svg version="1.1" id="Capa_1" xmlns="http://www.w3.org/2000/svg" xmlns:xlink="http://www.w3.org/1999/xlink" x="0px" y="0px"
	 viewBox="0 0 496 496" style="enable-background:new 0 0 496 496;" xml:space="preserve">
<path style="fill:#8C95A4;" d="M96,216H80c-8.84,0-16,7.16-16,16v208c0,8.84,7.16,16,16,16h16h304h16c8.84,0,16-7.16,16-16V232
	c0-8.84-7.16-16-16-16h-16H96z"/>
<polygon style="fill:#798699;" points="400,216 96,216 80,216 80,456 96,456 400,456 416,456 416,216 "/>
<path style="fill:#8C95A4;" d="M384,488H112c-8.84,0-16-7.16-16-16V24c0-8.84,7.16-16,16-16h272c8.84,0,16,7.16,16,16v448
	C400,480.84,392.84,488,384,488z"/>
<path style="fill:#798699;" d="M384,472H112c-8.84,0-16-7.16-16-16v16c0,8.84,7.16,16,16,16h272c8.84,0,16-7.16,16-16v-16
	C400,464.84,392.84,472,384,472z"/>
<rect x="128" y="40" style="fill:#39C3FC;" width="240" height="96"/>
<polygon style="fill:#148CE0;" points="248,136 368,136 368,40 264,40 "/>
<g>
	<rect x="320" y="360" style="fill:#ECECEC;" width="48" height="96"/>
	<rect x="320" y="296" style="fill:#ECECEC;" width="48" height="32"/>
</g>
<g>
	<path style="fill:#FCD770;" d="M272,456L272,456c-8.84,0-16-7.16-16-16l0,0c0-8.84,7.16-16,16-16l0,0c8.84,0,16,7.16,16,16l0,0
		C288,448.84,280.84,456,272,456z"/>
	<path style="fill:#FCD770;" d="M208,456L208,456c-8.84,0-16-7.16-16-16l0,0c0-8.84,7.16-16,16-16l0,0c8.84,0,16,7.16,16,16l0,0
		C224,448.84,216.84,456,208,456z"/>
	<path style="fill:#FCD770;" d="M144,456L144,456c-8.84,0-16-7.16-16-16l0,0c0-8.84,7.16-16,16-16l0,0c8.84,0,16,7.16,16,16l0,0
		C160,448.84,152.84,456,144,456z"/>
</g>
<g>
	<rect x="256" y="360" style="fill:#ECECEC;" width="32" height="32"/>
	<rect x="192" y="360" style="fill:#ECECEC;" width="32" height="32"/>
	<rect x="128" y="360" style="fill:#ECECEC;" width="32" height="32"/>
	<rect x="256" y="296" style="fill:#ECECEC;" width="32" height="32"/>
	<rect x="192" y="296" style="fill:#ECECEC;" width="32" height="32"/>
	<rect x="128" y="296" style="fill:#ECECEC;" width="32" height="32"/>
	<rect x="256" y="232" style="fill:#ECECEC;" width="32" height="32"/>
	<rect x="192" y="232" style="fill:#ECECEC;" width="32" height="32"/>
	<rect x="128" y="232" style="fill:#ECECEC;" width="32" height="32"/>
	<rect x="320" y="232" style="fill:#ECECEC;" width="48" height="32"/>
	<rect x="128" y="168" style="fill:#ECECEC;" width="48" height="32"/>
	<rect x="208" y="168" style="fill:#ECECEC;" width="48" height="32"/>
</g>
<path d="M120,144h256V32H120V144z M136,48h224v80H136V48z"/>
<path d="M312,464h64V352h-64V464z M328,368h32v80h-32V368z"/>
<path d="M312,336h64v-48h-64V336z M328,304h32v16h-32V304z"/>
<path d="M272,416c-13.232,0-24,10.768-24,24s10.768,24,24,24s24-10.768,24-24S285.232,416,272,416z M272,448c-4.416,0-8-3.592-8-8
	s3.584-8,8-8s8,3.592,8,8S276.416,448,272,448z"/>
<path d="M208,416c-13.232,0-24,10.768-24,24s10.768,24,24,24s24-10.768,24-24S221.232,416,208,416z M208,448c-4.416,0-8-3.592-8-8
	s3.584-8,8-8s8,3.592,8,8S212.416,448,208,448z"/>
<path d="M144,416c-13.232,0-24,10.768-24,24s10.768,24,24,24s24-10.768,24-24S157.232,416,144,416z M144,448c-4.416,0-8-3.592-8-8
	s3.584-8,8-8s8,3.592,8,8S148.416,448,144,448z"/>
<path d="M248,400h48v-48h-48V400z M264,368h16v16h-16V368z"/>
<path d="M184,400h48v-48h-48V400z M200,368h16v16h-16V368z"/>
<path d="M120,400h48v-48h-48V400z M136,368h16v16h-16V368z"/>
<path d="M248,336h48v-48h-48V336z M264,304h16v16h-16V304z"/>
<path d="M184,336h48v-48h-48V336z M200,304h16v16h-16V304z"/>
<path d="M120,336h48v-48h-48V336z M136,304h16v16h-16V304z"/>
<path d="M248,272h48v-48h-48V272z M264,240h16v16h-16V240z"/>
<path d="M184,272h48v-48h-48V272z M200,240h16v16h-16V240z"/>
<path d="M120,272h48v-48h-48V272z M136,240h16v16h-16V240z"/>
<path d="M312,272h64v-48h-64V272z M328,240h32v16h-32V240z"/>
<path d="M184,160h-64v48h64V160z M168,192h-32v-16h32V192z"/>
<path d="M264,160h-64v48h64V160z M248,192h-32v-16h32V192z"/>
<rect x="280" y="160" width="96" height="16"/>
<rect x="280" y="192" width="96" height="16"/>
<path d="M416,208h-8V24c0-13.232-10.768-24-24-24H112C98.768,0,88,10.768,88,24v184h-8c-13.232,0-24,10.768-24,24v208
	c0,13.232,10.768,24,24,24h8v8c0,13.232,10.768,24,24,24h272c13.232,0,24-10.768,24-24v-8h8c13.232,0,24-10.768,24-24V232
	C440,218.768,429.232,208,416,208z M80,448c-4.416,0-8-3.592-8-8V232c0-4.408,3.584-8,8-8h8v224H80z M424,440c0,4.408-3.584,8-8,8
	h-8V256h-16v216c0,4.408-3.584,8-8,8H112c-4.416,0-8-3.592-8-8V24c0-4.408,3.584-8,8-8h272c4.416,0,8,3.592,8,8v216h16v-16h8
	c4.416,0,8,3.592,8,8V440z"/>
<rect x="152" y="64" width="160" height="16"/>
<rect x="328" y="64" width="16" height="16"/>
<g>
</g>
<g>
</g>
<g>
</g>
<g>
</g>
<g>
</g>
<g>
</g>
<g>
</g>
<g>
</g>
<g>
</g>
<g>
</g>
<g>
</g>
<g>
</g>
<g>
</g>
<g>
</g>
<g>
</g>
</svg>
