<?xml version="1.0" encoding="UTF-8"?>
<svg width="39px" height="32px" viewBox="0 0 39 32" version="1.1" xmlns="http://www.w3.org/2000/svg" xmlns:xlink="http://www.w3.org/1999/xlink">
    <title>computer</title>
    <g id="Wizard-4" stroke="none" stroke-width="1" fill="none" fill-rule="evenodd">
        <g transform="translate(-383.000000, -1451.000000)" fill-rule="nonzero" id="1">
            <g transform="translate(199.000000, 1363.000000)">
                <g id="Group-2" transform="translate(20.000000, 20.000000)">
                    <g id="Group" transform="translate(47.000000, 58.000000)">
                        <g transform="translate(117.000000, 10.000000)" id="Group">
                            <g transform="translate(0.615385, 0.615385)">
                                <rect id="Rectangle" fill="#AAB2BD" x="11.0769231" y="24.6153846" width="14.7692308" height="3.69230769"></rect>
                                <path d="M36.9230769,20.9230769 L36.9230769,22.1538462 C36.9230769,23.5138462 35.8215385,24.6153846 34.4615385,24.6153846 L25.8461538,24.6153846 L11.0769231,24.6153846 L2.46153846,24.6153846 C1.10153846,24.6153846 0,23.5138462 0,22.1538462 L0,19.6923077 L8,19.6923077 L9.84615385,20.9230769 L36.9230769,20.9230769 Z" id="Path" fill="#969FAA"></path>
                                <path d="M36.9230769,2.46153846 L36.9230769,20.9230769 L9.84615385,20.9230769 L8,19.6923077 L0,19.6923077 L0,2.46153846 C0,1.10153846 1.10153846,0 2.46153846,0 L34.4615385,0 C35.8215385,0 36.9230769,1.10153846 36.9230769,2.46153846 Z" id="Path" fill="#69D6F4"></path>
                                <path d="M28.9230769,29.5384615 L28.9230769,30.7692308 L8,30.7692308 L8,29.5384615 C8,28.8615385 8.55384615,28.3076923 9.23076923,28.3076923 L11.0769231,28.3076923 L25.8461538,28.3076923 L27.6923077,28.3076923 C28.3692308,28.3076923 28.9230769,28.8615385 28.9230769,29.5384615 Z" id="Path" fill="#838F9B"></path>
                            </g>
                            <g fill="#000000">
                                <rect id="Rectangle" x="7.38461538" y="22.1538462" width="1.23076923" height="1.23076923"></rect>
                                <rect id="Rectangle" x="4.92307692" y="22.1538462" width="1.23076923" height="1.23076923"></rect>
                                <rect id="Rectangle" x="2.46153846" y="22.1538462" width="1.23076923" height="1.23076923"></rect>
                                <path d="M35.0769231,0 L3.07692308,0 C1.38030769,0 0,1.38030769 0,3.07692308 L0,22.7692308 C0,24.4658462 1.38030769,25.8461538 3.07692308,25.8461538 L11.0769231,25.8461538 L11.0769231,28.3076923 L9.84615385,28.3076923 C8.82830769,28.3076923 8,29.136 8,30.1538462 L8,32 L30.1538462,32 L30.1538462,30.1538462 C30.1538462,29.136 29.3255385,28.3076923 28.3076923,28.3076923 L27.0769231,28.3076923 L27.0769231,25.8461538 L35.0769231,25.8461538 C36.7735385,25.8461538 38.1538462,24.4658462 38.1538462,22.7692308 L38.1538462,3.07692308 C38.1538462,1.38030769 36.7735385,0 35.0769231,0 Z M3.07692308,1.23076923 L35.0769231,1.23076923 C36.0947692,1.23076923 36.9230769,2.05907692 36.9230769,3.07692308 L36.9230769,20.9230769 L10.648,20.9230769 L8.80184615,19.6923077 L1.23076923,19.6923077 L1.23076923,3.07692308 C1.23076923,2.05907692 2.05907692,1.23076923 3.07692308,1.23076923 Z M28.9230769,30.1538462 L28.9230769,30.7692308 L9.23076923,30.7692308 L9.23076923,30.1538462 C9.23076923,29.8147692 9.50707692,29.5384615 9.84615385,29.5384615 L28.3076923,29.5384615 C28.6467692,29.5384615 28.9230769,29.8147692 28.9230769,30.1538462 Z M35.0769231,24.6153846 L13.5384615,24.6153846 L13.5384615,25.8461538 L25.8461538,25.8461538 L25.8461538,28.3076923 L12.3076923,28.3076923 L12.3076923,24.6153846 L3.07692308,24.6153846 C2.05907692,24.6153846 1.23076923,23.7870769 1.23076923,22.7692308 L1.23076923,20.9230769 L8.42892308,20.9230769 L10.2750769,22.1538462 L36.9230769,22.1538462 L36.9230769,22.7692308 C36.9230769,23.7870769 36.0947692,24.6153846 35.0769231,24.6153846 Z" id="Shape"></path>
                                <rect id="Rectangle" x="33.2307692" y="3.69230769" width="1.23076923" height="1.23076923"></rect>
                                <rect id="Rectangle" x="12.9230769" y="3.69230769" width="19.0769231" height="1.23076923"></rect>
                            </g>
                        </g>
                    </g>
                </g>
            </g>
        </g>
    </g>
</svg>