<?xml version="1.0" encoding="UTF-8"?>
<svg width="35px" height="32px" viewBox="0 0 35 32" version="1.1" xmlns="http://www.w3.org/2000/svg" xmlns:xlink="http://www.w3.org/1999/xlink">
    <title>land</title>
    <g id="Wizard-4" stroke="none" stroke-width="1" fill="none" fill-rule="evenodd">
        <g transform="translate(-276.000000, -1451.000000)" fill-rule="nonzero" id="1">
            <g transform="translate(199.000000, 1363.000000)">
                <g id="Group-2" transform="translate(20.000000, 20.000000)">
                    <g id="Group" transform="translate(47.000000, 58.000000)">
                        <g transform="translate(10.000000, 10.000000)" id="management-(1)">
                            <polygon id="Path" fill="#57C8A7" points="25.75 10.1666667 17.0666667 2.63880207 11.1333333 7.8067708 18.1356771 14.396875"></polygon>
                            <polygon id="Path" fill="#2DBA92" points="18.1356771 18.1382813 18.1356771 14.396875 11.1333333 7.8067708 0.498437467 17.0692708 6.84557293 22.5973959 12.7908854 18.1382813"></polygon>
                            <polygon id="Path" fill="#ABE3D3" points="12.7908854 18.1382813 6.84557293 22.5973959 17.0666667 31.4997396 24.29375 25.1760417 18.1356771 18.1382813"></polygon>
                            <polygon id="Path" fill="#81D6BD" points="25.75 10.1666667 18.1356771 14.396875 18.1356771 18.1382813 24.29375 25.1760417 33.6348959 17.0023437"></polygon>
                            <path d="M14.3942708,3.17343747 C14.3942708,1.69739587 15.5908854,0.501041667 17.0666667,0.501041667 C18.5424479,0.501041667 19.7390625,1.69739587 19.7390625,3.17343747 C19.7390625,4.64921873 17.0666667,6.91458333 17.0666667,6.91458333 C17.0666667,6.91458333 14.3942708,4.64921873 14.3942708,3.17343747 Z" id="Path" fill="#FBD37B"></path>
                            <path d="M15.9976563,3.17343747 C15.9976563,1.97682293 16.7841146,0.964062533 17.8682292,0.623697933 C17.6153646,0.5440104 17.3460937,0.501041667 17.0666667,0.501041667 C15.5908854,0.501041667 14.3942708,1.69739587 14.3942708,3.17343747 C14.3942708,4.64921873 17.0666667,6.91458333 17.0666667,6.91458333 C17.0666667,6.91458333 17.4192708,6.615625 17.8682292,6.16406253 C17.08125,5.37291667 15.9976563,4.1130208 15.9976563,3.17343747 Z" id="Path" fill="#F9B623"></path>
                            <path d="M18.1356771,3.17343747 C18.1356771,3.76380207 17.6570313,4.24218747 17.0666667,4.24218747 C16.4763021,4.24218747 15.9976563,3.76380207 15.9976563,3.17343747 C15.9976563,2.58307293 16.4763021,2.10442707 17.0666667,2.10442707 C17.6570313,2.10442707 18.1356771,2.58307293 18.1356771,3.17343747 Z" id="Path" fill="#F1EDEE"></path>
                            <path d="M26.1523437,12.2591146 C26.1523437,10.7833333 27.3489583,9.5869792 28.8247396,9.5869792 C30.3005208,9.5869792 31.4971354,10.7833333 31.4971354,12.2591146 C31.4971354,13.7348959 28.8247396,16.0002604 28.8247396,16.0002604 C28.8247396,16.0002604 26.1523437,13.7348959 26.1523437,12.2591146 Z" id="Path" fill="#FAC54F"></path>
                            <path d="M27.7557292,12.2591146 C27.7557292,11.0627604 28.5421875,10.05 29.6263021,9.709375 C29.3731771,9.62994793 29.1041667,9.5869792 28.8247396,9.5869792 C27.3489583,9.5869792 26.1523437,10.7833333 26.1523437,12.2591146 C26.1523437,13.7348959 28.8247396,16.0002604 28.8247396,16.0002604 C28.8247396,16.0002604 29.1773437,15.7013021 29.6263021,15.25 C28.8393229,14.4585937 27.7557292,13.1989583 27.7557292,12.2591146 Z" id="Path" fill="#F7963E"></path>
                            <path d="M29.89375,12.2591146 C29.89375,12.8494792 29.4151041,13.328125 28.8247396,13.328125 C28.234375,13.328125 27.7557292,12.8494792 27.7557292,12.2591146 C27.7557292,11.66875 28.234375,11.1901041 28.8247396,11.1901041 C29.4151041,11.1901041 29.89375,11.66875 29.89375,12.2591146 Z" id="Path" fill="#F1EDEE"></path>
                            <path d="M14.3942708,24.5518229 C14.3942708,23.0757813 15.5908854,21.8794271 17.0666667,21.8794271 C18.5424479,21.8794271 19.7390625,23.0757813 19.7390625,24.5518229 C19.7390625,26.0276041 17.0666667,28.2929687 17.0666667,28.2929687 C17.0666667,28.2929687 14.3942708,26.0276041 14.3942708,24.5518229 Z" id="Path" fill="#FBD37B"></path>
                            <path d="M15.9976563,24.5518229 C15.9976563,23.3552083 16.7841146,22.3424479 17.8682292,22.0018229 C17.6153646,21.9223959 17.3460937,21.8794271 17.0666667,21.8794271 C15.5908854,21.8794271 14.3942708,23.0757813 14.3942708,24.5518229 C14.3942708,26.0276041 17.0666667,28.2929687 17.0666667,28.2929687 C17.0666667,28.2929687 17.4192708,27.99375 17.8682292,27.5424479 C17.08125,26.7513021 15.9976563,25.4914063 15.9976563,24.5518229 Z" id="Path" fill="#F9B623"></path>
                            <path d="M18.1356771,24.5518229 C18.1356771,25.1419271 17.6570313,25.6205729 17.0666667,25.6205729 C16.4763021,25.6205729 15.9976563,25.1419271 15.9976563,24.5518229 C15.9976563,23.9614583 16.4763021,23.4828125 17.0666667,23.4828125 C17.6570313,23.4828125 18.1356771,23.9614583 18.1356771,24.5518229 L18.1356771,24.5518229 Z" id="Path" fill="#F1EDEE"></path>
                            <path d="M2.63619793,12.2591146 C2.63619793,10.7833333 3.83281253,9.5869792 5.30859373,9.5869792 C6.784375,9.5869792 7.9807292,10.7833333 7.9807292,12.2591146 C7.9807292,13.7348959 5.30859373,16.0002604 5.30859373,16.0002604 C5.30859373,16.0002604 2.63619793,13.7348959 2.63619793,12.2591146 Z" id="Path" fill="#FAC54F"></path>
                            <path d="M4.23958333,12.2591146 C4.23958333,11.0627604 5.02604167,10.05 6.11015627,9.709375 C5.85729167,9.62994793 5.5877604,9.5869792 5.30859373,9.5869792 C3.83281253,9.5869792 2.63619793,10.7833333 2.63619793,12.2591146 C2.63619793,13.7348959 5.30859373,16.0002604 5.30859373,16.0002604 C5.30859373,16.0002604 5.66119793,15.7013021 6.11015627,15.25 C5.32317707,14.4585937 4.23958333,13.1989583 4.23958333,12.2591146 Z" id="Path" fill="#F7963E"></path>
                            <path d="M6.37760413,12.2591146 C6.37760413,12.8494792 5.89895833,13.328125 5.30859373,13.328125 C4.7182292,13.328125 4.23958333,12.8494792 4.23958333,12.2591146 C4.23958333,11.66875 4.7182292,11.1901041 5.30859373,11.1901041 C5.89895833,11.1901041 6.37760413,11.66875 6.37760413,12.2591146 Z" id="Path" fill="#F1EDEE"></path>
                            <path d="M33.9630208,16.6239583 L31.1833333,14.2140625 C31.6434896,13.5721354 31.9981771,12.8770833 31.9981771,12.2591146 C31.9981771,10.509375 30.5744792,9.08567707 28.8247396,9.08567707 C27.8932292,9.08567707 27.0541667,9.48932293 26.4731771,10.1307292 L19.8742187,4.4096354 C20.0963541,3.98880207 20.2401041,3.565625 20.2401041,3.17343747 C20.2401041,1.42369793 18.8164063,0 17.0666667,0 C15.3169271,0 13.8932292,1.42369793 13.8932292,3.17343747 C13.8932292,3.56770833 14.0388021,3.9934896 14.2627604,4.41666667 L7.678125,10.1515625 C7.0966146,9.49817707 6.25,9.08567707 5.30859373,9.08567707 C3.55885413,9.08567707 2.13515627,10.509375 2.13515627,12.2591146 C2.13515627,12.8880208 2.50260413,13.596875 2.9747396,14.2481771 L0.169531267,16.6914063 C-0.0565104,16.8880208 -0.0565104,17.2505208 0.169531267,17.4471354 L16.7375,31.8776041 C16.9242187,32.0401041 17.2104167,32.0398437 17.3966146,31.8768229 L26.5309896,23.8841146 C26.7393229,23.7020833 26.7604167,23.3854167 26.578125,23.1770833 C26.3958333,22.9690104 26.0791667,22.9479167 25.8710937,23.1299479 L24.3408854,24.4690104 L18.6367187,17.95 L18.6367187,14.6919271 L25.6867187,10.775 L25.9221354,10.9791667 C25.7486979,11.3708333 25.6515625,11.8039063 25.6515625,12.2591146 C25.6515625,13.9192708 28.2091146,16.1354167 28.5007813,16.3825521 C28.6854167,16.5390625 28.9643229,16.5390625 29.1486979,16.3825521 C29.2854167,16.2666667 29.9203125,15.7179687 30.55625,14.9966146 L32.8721354,17.0041667 L27.7236979,21.5088541 C27.5317708,21.6768229 27.4979167,21.9716146 27.646875,22.1786459 C27.8169271,22.4151041 28.1640625,22.4552083 28.3835937,22.2630208 L33.9648437,17.3794271 C34.1903646,17.1822917 34.1893229,16.8200521 33.9630208,16.6239583 Z M17.0666667,1.00208333 C18.2638021,1.00208333 19.2377604,1.97604167 19.2377604,3.17343747 C19.2377604,3.9815104 18.0151041,5.37421873 17.0666667,6.24557293 C16.4770833,5.70390627 15.7817708,4.96093747 15.3395833,4.2817708 C15.3299479,4.26458333 15.3192708,4.24791667 15.3075521,4.2315104 C15.0570313,3.8369792 14.8953125,3.46666667 14.8953125,3.17317707 C14.8953125,1.97604167 15.8692708,1.00208333 17.0666667,1.00208333 Z M16.7427083,7.2966146 C16.9273437,7.4533854 17.20625,7.4533854 17.390625,7.2966146 C17.5661459,7.14791667 18.5617187,6.28619793 19.3270833,5.26171873 L24.8807292,10.0763021 L18.2122396,13.78125 L11.8796875,7.82109373 L14.8109375,5.2682292 C15.5757813,6.28984373 16.5674479,7.14843747 16.7427083,7.2966146 Z M5.30859373,10.0880208 C6.5057292,10.0880208 7.47968747,11.0619792 7.47968747,12.2591146 C7.47968747,13.0674479 6.25703127,14.4601563 5.30859373,15.3315104 C4.36015627,14.4598959 3.1372396,13.0671875 3.1372396,12.2591146 C3.1372396,11.0619792 4.11119793,10.0880208 5.30859373,10.0880208 Z M3.60520833,15.0278646 C4.2315104,15.7335937 4.8497396,16.2682292 4.9846354,16.3825521 C5.1690104,16.5390625 5.44791667,16.5390625 5.63255207,16.3825521 C5.92421873,16.1354167 8.4817708,13.9192708 8.4817708,12.2591146 C8.4817708,11.8140625 8.38932293,11.3903646 8.22317707,11.0057292 L11.1200521,8.48255207 L17.634375,14.6135417 L17.634375,17.6372396 L12.7908854,17.6372396 C12.6822917,17.6372396 12.5768229,17.6723959 12.4901041,17.7372396 L6.86875,21.9533854 L1.26119793,17.0692708 L3.60520833,15.0278646 Z M17.0658854,30.8346354 L7.64166667,22.6263021 L12.9580729,18.6390625 L17.9083333,18.6390625 L23.5867187,25.1289063 L17.0658854,30.8346354 Z M28.8247396,15.3315104 C27.8763021,14.4598959 26.6533854,13.0671875 26.6533854,12.2591146 C26.6533854,11.0619792 27.6276041,10.0880208 28.8247396,10.0880208 C30.021875,10.0880208 30.9960937,11.0619792 30.9960937,12.2591146 C30.9960937,13.0671875 29.7731771,14.4601563 28.8247396,15.3315104 Z" id="Shape" fill="#000000"></path>
                            <path d="M17.0666667,4.7432292 C17.9322917,4.7432292 18.6367187,4.03906253 18.6367187,3.17343747 C18.6367187,2.30755207 17.9322917,1.6033854 17.0666667,1.6033854 C16.2010417,1.6033854 15.4966146,2.30755207 15.4966146,3.17343747 C15.4966146,4.03906253 16.2010417,4.7432292 17.0666667,4.7432292 Z M17.0666667,2.60546873 C17.3796875,2.60546873 17.6346354,2.86015627 17.6346354,3.17343747 C17.6346354,3.48645833 17.3796875,3.74114587 17.0666667,3.74114587 C16.7536459,3.74114587 16.4986979,3.48645833 16.4986979,3.17343747 C16.4986979,2.86015627 16.7536459,2.60546873 17.0666667,2.60546873 Z" id="Shape" fill="#000000"></path>
                            <path d="M28.8247396,10.6890625 C27.9591146,10.6890625 27.2546875,11.3934896 27.2546875,12.2591146 C27.2546875,13.1247396 27.9591146,13.8291667 28.8247396,13.8291667 C29.6903646,13.8291667 30.3947917,13.1247396 30.3947917,12.2591146 C30.3947917,11.3934896 29.6903646,10.6890625 28.8247396,10.6890625 L28.8247396,10.6890625 Z M28.8247396,12.8270833 C28.5117187,12.8270833 28.2567708,12.5723959 28.2567708,12.2591146 C28.2567708,11.9460937 28.5117187,11.6914063 28.8247396,11.6914063 C29.1377604,11.6914063 29.3927083,11.9460937 29.3927083,12.2591146 C29.3927083,12.5723959 29.1377604,12.8270833 28.8247396,12.8270833 L28.8247396,12.8270833 Z" id="Shape" fill="#000000"></path>
                            <path d="M13.8932292,24.5518229 C13.8932292,26.2117187 16.4510417,28.4278646 16.7427083,28.675 C16.8359375,28.7544271 16.9513021,28.7940104 17.0666667,28.7940104 C17.1820313,28.7940104 17.2971354,28.7544271 17.390625,28.675 C17.6822917,28.4278646 20.2401041,26.2117187 20.2401041,24.5518229 C20.2401041,22.8018229 18.8164063,21.3783854 17.0666667,21.3783854 C15.3169271,21.3783854 13.8932292,22.8018229 13.8932292,24.5518229 L13.8932292,24.5518229 Z M19.2377604,24.5518229 C19.2377604,25.3598959 18.0151041,26.7526041 17.0666667,27.6239583 C16.1182292,26.7526041 14.8953125,25.3596354 14.8953125,24.5518229 C14.8953125,23.3544271 15.8692708,22.3804687 17.0666667,22.3804687 C18.2638021,22.3804687 19.2377604,23.3544271 19.2377604,24.5518229 L19.2377604,24.5518229 Z" id="Shape" fill="#000000"></path>
                            <path d="M15.4966146,24.5518229 C15.4966146,25.4174479 16.2010417,26.1216146 17.0666667,26.1216146 C17.9322917,26.1216146 18.6367187,25.4174479 18.6367187,24.5518229 C18.6367187,23.6859375 17.9322917,22.9817708 17.0666667,22.9817708 C16.2010417,22.9817708 15.4966146,23.6859375 15.4966146,24.5518229 Z M17.6346354,24.5518229 C17.6346354,24.8648437 17.3796875,25.1195313 17.0666667,25.1195313 C16.7536459,25.1195313 16.4986979,24.8648437 16.4986979,24.5518229 C16.4986979,24.2385417 16.7536459,23.9838541 17.0666667,23.9838541 C17.3796875,23.9838541 17.6346354,24.2385417 17.6346354,24.5518229 Z" id="Shape" fill="#000000"></path>
                            <path d="M6.87864587,12.2591146 C6.87864587,11.3934896 6.17421873,10.6890625 5.30859373,10.6890625 C4.44296873,10.6890625 3.73854167,11.3934896 3.73854167,12.2591146 C3.73854167,13.1247396 4.44296873,13.8291667 5.30859373,13.8291667 C6.17421873,13.8291667 6.87864587,13.1247396 6.87864587,12.2591146 Z M4.740625,12.2591146 C4.740625,11.9460937 4.99531253,11.6914063 5.30859373,11.6914063 C5.6216146,11.6914063 5.87630207,11.9460937 5.87630207,12.2591146 C5.87630207,12.5723959 5.6216146,12.8270833 5.30859373,12.8270833 C4.99531253,12.8270833 4.740625,12.5721354 4.740625,12.2591146 Z" id="Shape" fill="#000000"></path>
                        </g>
                    </g>
                </g>
            </g>
        </g>
    </g>
</svg>