<?xml version="1.0" encoding="UTF-8"?>
<svg width="32px" height="32px" viewBox="0 0 32 32" version="1.1" xmlns="http://www.w3.org/2000/svg" xmlns:xlink="http://www.w3.org/1999/xlink">
    <title>machinary</title>
    <g id="Wizard-4" stroke="none" stroke-width="1" fill="none" fill-rule="evenodd">
        <g transform="translate(-331.000000, -1451.000000)" fill-rule="nonzero" id="1">
            <g transform="translate(199.000000, 1363.000000)">
                <g id="Group-2" transform="translate(20.000000, 20.000000)">
                    <g id="Group" transform="translate(47.000000, 58.000000)">
                        <g transform="translate(65.000000, 10.000000)" id="conveyor">
                            <g id="Group" transform="translate(0.516129, 0.516129)">
                                <path d="M30.1470968,1.85290323 C30.3380645,2.03870968 30.4516129,2.29677419 30.4516129,2.58064516 C30.4516129,3.1483871 29.9870968,3.61290323 29.4193548,3.61290323 L28.3870968,3.61290323 L28.3870968,1.5483871 L29.4193548,1.5483871 C29.7032258,1.5483871 29.9612903,1.66193548 30.1470968,1.85290323 Z" id="Path" fill="#CCD1D9"></path>
                                <polygon id="Path" fill="#CCD1D9" points="23.2258065 1.5483871 23.2258065 3.61290323 13.9354839 3.61290323 13.9354839 2.06451613 13.9354839 1.5483871"></polygon>
                                <path d="M13.9354839,2.06451613 L5.67741935,2.06451613 L5.67741935,1.03225806 C5.67741935,0.464516129 6.14193548,0 6.70967742,0 L12.9032258,0 C13.4709677,0 13.9354839,0.464516129 13.9354839,1.03225806 L13.9354839,1.5483871 L13.9354839,2.06451613 Z" id="Path" fill="#969FAA"></path>
                                <polygon id="Path" fill="#969FAA" points="5.67741935 4.12903226 13.9354839 4.12903226 13.9354839 7.22580645 5.67741935 7.22580645"></polygon>
                                <polygon id="Path" fill="#AAB2BD" points="13.9354839 4.12903226 5.67741935 4.12903226 5.67741935 2.06451613 13.9354839 2.06451613 13.9354839 3.61290323"></polygon>
                                <path d="M28.3870968,1.5483871 L28.3870968,3.61290323 L28.3870968,4.64516129 C28.3870968,4.92903226 28.1548387,5.16129032 27.8709677,5.16129032 L25.8064516,5.16129032 L23.7419355,5.16129032 C23.4580645,5.16129032 23.2258065,4.92903226 23.2258065,4.64516129 L23.2258065,3.61290323 L23.2258065,1.5483871 L23.2258065,0.516129032 C23.2258065,0.232258065 23.4580645,0 23.7419355,0 L27.8709677,0 C28.1548387,0 28.3870968,0.232258065 28.3870968,0.516129032 L28.3870968,1.5483871 Z" id="Path" fill="#AAB2BD"></path>
                                <circle id="Oval" fill="#FCD770" cx="25.8064516" cy="2.58064516" r="1.03225806"></circle>
                                <polygon id="Path" fill="#CCD1D9" points="16.516129 7.22580645 18.5806452 10.3225806 1.03225806 10.3225806 3.09677419 7.22580645 5.67741935 7.22580645 13.9354839 7.22580645"></polygon>
                                <polygon id="Path" fill="#D3A06C" points="22.7096774 18.5806452 28.9032258 18.5806452 28.9032258 24.7741935 22.7096774 24.7741935"></polygon>
                                <polygon id="Path" fill="#D3A06C" points="13.4193548 20.6451613 19.6129032 20.6451613 19.6129032 26.8387097 13.4193548 26.8387097"></polygon>
                                <polygon id="Path" fill="#D3A06C" points="4.12903226 20.6451613 10.3225806 20.6451613 10.3225806 26.8387097 4.12903226 26.8387097"></polygon>
                                <path d="M18.5806452,10.3225806 L18.5806452,20.6451613 L17.5483871,20.6451613 L15.483871,20.6451613 L13.4193548,20.6451613 L13.4193548,26.8387097 L12.3870968,26.8387097 L10.3225806,26.8387097 L10.3225806,20.6451613 L8.25806452,20.6451613 L6.19354839,20.6451613 L4.12903226,20.6451613 L4.12903226,26.8387097 L2.06451613,26.8387097 C1.68774194,26.8387097 1.33677419,26.9419355 1.03225806,27.1174194 L1.03225806,10.3225806 L18.5806452,10.3225806 Z" id="Path" fill="#E6E9ED"></path>
                                <circle id="Oval" fill="#FCD770" cx="15.483871" cy="13.4193548" r="1.03225806"></circle>
                                <circle id="Oval" fill="#FCD770" cx="11.3548387" cy="13.4193548" r="1.03225806"></circle>
                                <path d="M27.3548387,13.9354839 L27.3548387,13.9664516 C27.3393548,14.8077419 26.6529032,15.483871 25.8064516,15.483871 C24.96,15.483871 24.2735484,14.8077419 24.2580645,13.9664516 C24.2580645,13.956129 24.2580645,13.9458065 24.2580645,13.9354839 C24.2580645,13.0787097 24.9496774,12.3870968 25.8064516,12.3870968 C26.6632258,12.3870968 27.3548387,13.0787097 27.3548387,13.9354839 Z" id="Path" fill="#FCD770"></path>
                                <g transform="translate(0.000000, 26.838710)" fill="#CCD1D9" id="Path">
                                    <path d="M28.9032258,0 L24.7741935,0 C25.9148387,0 26.8387097,0.923870968 26.8387097,2.06451613 C26.8387097,3.20516129 25.9148387,4.12903226 24.7741935,4.12903226 L28.9032258,4.12903226 C29.4709677,4.12903226 29.9870968,3.89677419 30.363871,3.52516129 C30.7354839,3.1483871 30.9677419,2.63225806 30.9677419,2.06451613 C30.9677419,0.923870968 30.043871,0 28.9032258,0 Z"></path>
                                    <path d="M22.7096774,2.06451613 C22.7096774,0.923870968 23.6335484,0 24.7741935,0 L19.6129032,0 L18.5806452,0 C19.7212903,0 20.6451613,0.923870968 20.6451613,2.06451613 C20.6451613,3.20516129 19.7212903,4.12903226 18.5806452,4.12903226 L24.7741935,4.12903226 C23.6335484,4.12903226 22.7096774,3.20516129 22.7096774,2.06451613 Z"></path>
                                    <path d="M16.516129,2.06451613 C16.516129,0.923870968 17.44,0 18.5806452,0 L13.4193548,0 L12.3870968,0 C13.5277419,0 14.4516129,0.923870968 14.4516129,2.06451613 C14.4516129,3.20516129 13.5277419,4.12903226 12.3870968,4.12903226 L18.5806452,4.12903226 C17.44,4.12903226 16.516129,3.20516129 16.516129,2.06451613 Z"></path>
                                    <path d="M10.3225806,2.06451613 C10.3225806,0.923870968 11.2464516,0 12.3870968,0 L10.3225806,0 L6.19354839,0 C7.33419355,0 8.25806452,0.923870968 8.25806452,2.06451613 C8.25806452,3.20516129 7.33419355,4.12903226 6.19354839,4.12903226 L12.3870968,4.12903226 C11.2464516,4.12903226 10.3225806,3.20516129 10.3225806,2.06451613 Z"></path>
                                    <path d="M4.12903226,2.06451613 C4.12903226,0.923870968 5.05290323,0 6.19354839,0 L4.12903226,0 L2.06451613,0 C1.68774194,0 1.33677419,0.103225806 1.03225806,0.278709677 C0.877419355,0.366451613 0.732903226,0.48 0.603870968,0.603870968 C0.232258065,0.980645161 0,1.49677419 0,2.06451613 C0,3.20516129 0.923870968,4.12903226 2.06451613,4.12903226 L6.19354839,4.12903226 C5.05290323,4.12903226 4.12903226,3.20516129 4.12903226,2.06451613 Z"></path>
                                </g>
                                <circle id="Oval" fill="#969FAA" cx="24.7741935" cy="28.9032258" r="2.06451613"></circle>
                                <circle id="Oval" fill="#969FAA" cx="18.5806452" cy="28.9032258" r="2.06451613"></circle>
                                <circle id="Oval" fill="#969FAA" cx="12.3870968" cy="28.9032258" r="2.06451613"></circle>
                                <circle id="Oval" fill="#969FAA" cx="6.19354839" cy="28.9032258" r="2.06451613"></circle>
                                <polygon id="Path" fill="#B27946" points="26.8387097 18.5806452 26.8387097 20.6451613 24.7741935 20.6451613 24.7741935 18.5806452 25.8064516 18.5806452"></polygon>
                                <polygon id="Path" fill="#B27946" points="15.483871 20.6451613 17.5483871 20.6451613 17.5483871 22.7096774 15.483871 22.7096774"></polygon>
                                <polygon id="Path" fill="#B27946" points="6.19354839 20.6451613 8.25806452 20.6451613 8.25806452 22.7096774 6.19354839 22.7096774"></polygon>
                                <polygon id="Path" fill="#69D6F4" points="3.09677419 12.3870968 8.25806452 12.3870968 8.25806452 18.5806452 3.09677419 18.5806452"></polygon>
                            </g>
                            <g id="Group" fill="#000000">
                                <path d="M29.4193548,26.8387097 L20.6451613,26.8387097 L20.6451613,20.6451613 L19.6129032,20.6451613 L19.6129032,10.6823226 L17.3083871,7.22580645 L14.9677419,7.22580645 L14.9677419,4.64516129 L23.2258065,4.64516129 L23.2258065,5.16129032 C23.2258065,5.73058065 23.6887742,6.19354839 24.2580645,6.19354839 L25.8064516,6.19354839 L25.8064516,12.4603871 C25.0482581,12.6575484 24.4557419,13.2686452 24.2993548,14.0423226 C22.1894194,14.5006452 20.6451613,16.3824516 20.6451613,18.5806452 C20.6451613,19.8265806 21.5334194,20.8691613 22.7096774,21.1091613 L22.7096774,25.8064516 L29.9354839,25.8064516 L29.9354839,21.1091613 C31.1117419,20.8691613 32,19.8270968 32,18.5806452 C32,16.3824516 30.4557419,14.5006452 28.3458065,14.0423226 C28.1894194,13.2686452 27.5969032,12.6575484 26.8387097,12.4603871 L26.8387097,6.19354839 L28.3870968,6.19354839 C28.9563871,6.19354839 29.4193548,5.73058065 29.4193548,5.16129032 L29.4193548,4.64516129 L29.9354839,4.64516129 C30.7891613,4.64516129 31.483871,3.95045161 31.483871,3.09677419 C31.483871,2.24309677 30.7891613,1.5483871 29.9354839,1.5483871 L29.4193548,1.5483871 L29.4193548,1.03225806 C29.4193548,0.462967742 28.9563871,0 28.3870968,0 L24.2580645,0 C23.6887742,0 23.2258065,0.462967742 23.2258065,1.03225806 L23.2258065,1.5483871 L14.9677419,1.5483871 C14.9677419,0.694709677 14.2730323,0 13.4193548,0 L7.22580645,0 C6.37212903,0 5.67741935,0.694709677 5.67741935,1.5483871 L5.67741935,7.22580645 L3.33677419,7.22580645 L1.03225806,10.6823226 L1.03225806,27.3677419 C0.409290323,27.8394839 0,28.5796129 0,29.4193548 C0,30.8423226 1.15767742,32 2.58064516,32 L29.4193548,32 C30.8423226,32 32,30.8423226 32,29.4193548 C32,27.9963871 30.8423226,26.8387097 29.4193548,26.8387097 Z M21.6774194,18.5806452 C21.6774194,16.9233548 22.8067097,15.5009032 24.3695484,15.0900645 C24.5873548,15.7532903 25.1261935,16.2663226 25.8064516,16.4428387 L25.8064516,18.5806452 L22.7096774,18.5806452 L22.7096774,20.0340645 C22.1104516,19.8203871 21.6774194,19.2526452 21.6774194,18.5806452 L21.6774194,18.5806452 Z M25.8064516,19.6129032 L26.8387097,19.6129032 L26.8387097,20.6451613 L25.8064516,20.6451613 L25.8064516,19.6129032 Z M28.9032258,24.7741935 L23.7419355,24.7741935 L23.7419355,19.6129032 L24.7741935,19.6129032 L24.7741935,21.6774194 L27.8709677,21.6774194 L27.8709677,19.6129032 L28.9032258,19.6129032 L28.9032258,24.7741935 Z M28.2756129,15.0900645 C29.8384516,15.5003871 30.9677419,16.9233548 30.9677419,18.5806452 C30.9677419,19.2526452 30.5347097,19.8203871 29.9354839,20.0340645 L29.9354839,18.5806452 L26.8387097,18.5806452 L26.8387097,16.4428387 C27.5189677,16.2658065 28.0583226,15.7532903 28.2756129,15.0900645 Z M27.3548387,14.4516129 C27.3548387,15.0209032 26.891871,15.483871 26.3225806,15.483871 C25.7532903,15.483871 25.2903226,15.0209032 25.2903226,14.4516129 C25.2903226,13.8823226 25.7532903,13.4193548 26.3225806,13.4193548 C26.891871,13.4193548 27.3548387,13.8823226 27.3548387,14.4516129 Z M29.9354839,2.58064516 C30.219871,2.58064516 30.4516129,2.8123871 30.4516129,3.09677419 C30.4516129,3.38116129 30.219871,3.61290323 29.9354839,3.61290323 L29.4193548,3.61290323 L29.4193548,2.58064516 L29.9354839,2.58064516 Z M24.2580645,1.03225806 L28.3870968,1.03225806 L28.3876129,5.16129032 L24.2580645,5.16129032 L24.2580645,1.03225806 Z M26.8387097,29.4193548 C26.8387097,30.2730323 26.144,30.9677419 25.2903226,30.9677419 C24.4366452,30.9677419 23.7419355,30.2730323 23.7419355,29.4193548 C23.7419355,28.5656774 24.4366452,27.8709677 25.2903226,27.8709677 C26.144,27.8709677 26.8387097,28.5656774 26.8387097,29.4193548 Z M5.16129032,29.4193548 C5.16129032,28.5656774 5.856,27.8709677 6.70967742,27.8709677 C7.56335484,27.8709677 8.25806452,28.5656774 8.25806452,29.4193548 C8.25806452,30.2730323 7.56335484,30.9677419 6.70967742,30.9677419 C5.856,30.9677419 5.16129032,30.2730323 5.16129032,29.4193548 Z M7.22580645,21.6774194 L8.25806452,21.6774194 L8.25806452,22.7096774 L7.22580645,22.7096774 L7.22580645,21.6774194 Z M9.29032258,23.7419355 L9.29032258,21.6774194 L10.3225806,21.6774194 L10.3225806,26.8387097 L5.16129032,26.8387097 L5.16129032,21.6774194 L6.19354839,21.6774194 L6.19354839,23.7419355 L9.29032258,23.7419355 Z M8.76077419,27.8709677 L10.8516129,27.8709677 C10.5243871,28.3034839 10.3225806,28.836129 10.3225806,29.4193548 C10.3225806,30.0025806 10.5243871,30.5352258 10.852129,30.9677419 L8.76129032,30.9677419 C9.08851613,30.5352258 9.29032258,30.0025806 9.29032258,29.4193548 C9.29032258,28.836129 9.08851613,28.3034839 8.76077419,27.8709677 Z M11.3548387,29.4193548 C11.3548387,28.5656774 12.0495484,27.8709677 12.9032258,27.8709677 C13.7569032,27.8709677 14.4516129,28.5656774 14.4516129,29.4193548 C14.4516129,30.2730323 13.7569032,30.9677419 12.9032258,30.9677419 C12.0495484,30.9677419 11.3548387,30.2730323 11.3548387,29.4193548 Z M14.9543226,27.8709677 L17.0451613,27.8709677 C16.7179355,28.3034839 16.516129,28.836129 16.516129,29.4193548 C16.516129,30.0025806 16.7179355,30.5352258 17.0456774,30.9677419 L14.9548387,30.9677419 C15.2820645,30.5352258 15.483871,30.0025806 15.483871,29.4193548 C15.483871,28.836129 15.2820645,28.3034839 14.9543226,27.8709677 Z M17.5483871,29.4193548 C17.5483871,28.5656774 18.2430968,27.8709677 19.0967742,27.8709677 C19.9504516,27.8709677 20.6451613,28.5656774 20.6451613,29.4193548 C20.6451613,30.2730323 19.9504516,30.9677419 19.0967742,30.9677419 C18.2430968,30.9677419 17.5483871,30.2730323 17.5483871,29.4193548 Z M21.147871,27.8709677 L23.2387097,27.8709677 C22.9114839,28.3034839 22.7096774,28.836129 22.7096774,29.4193548 C22.7096774,30.0025806 22.9114839,30.5352258 23.2392258,30.9677419 L21.1483871,30.9677419 C21.4756129,30.5352258 21.6774194,30.0025806 21.6774194,29.4193548 C21.6774194,28.836129 21.4756129,28.3034839 21.147871,27.8709677 Z M14.4516129,26.8387097 L14.4516129,21.6774194 L15.483871,21.6774194 L15.483871,23.7419355 L18.5806452,23.7419355 L18.5806452,21.6774194 L19.6129032,21.6774194 L19.6129032,26.8387097 L14.4516129,26.8387097 Z M16.516129,21.6774194 L17.5483871,21.6774194 L17.5483871,22.7096774 L16.516129,22.7096774 L16.516129,21.6774194 Z M13.9354839,4.12903226 L6.70967742,4.12903226 L6.70967742,3.09677419 L13.9354839,3.09677419 L13.9354839,4.12903226 Z M23.2258065,2.58064516 L23.2258065,3.61290323 L14.9677419,3.61290323 L14.9677419,2.58064516 L23.2258065,2.58064516 Z M7.22580645,1.03225806 L13.4193548,1.03225806 C13.7037419,1.03225806 13.9354839,1.264 13.9354839,1.5483871 L13.9354839,2.06451613 L6.70967742,2.06451613 L6.70967742,1.5483871 C6.70967742,1.264 6.94141935,1.03225806 7.22580645,1.03225806 Z M6.70967742,5.16129032 L13.9354839,5.16129032 L13.9354839,7.22580645 L6.70967742,7.22580645 L6.70967742,5.16129032 Z M3.88903226,8.25806452 L16.756129,8.25806452 L18.1326452,10.3225806 L2.51251613,10.3225806 L3.88903226,8.25806452 Z M2.06451613,11.3548387 L18.5806452,11.3548387 L18.5806452,20.6451613 L13.4193548,20.6451613 L13.4193548,26.8387097 L11.3548387,26.8387097 L11.3548387,20.6451613 L4.12903226,20.6451613 L4.12903226,26.8387097 L2.58064516,26.8387097 C2.40412903,26.8387097 2.23122581,26.8567742 2.06451613,26.8908387 L2.06451613,11.3548387 Z M1.03225806,29.4193548 C1.03225806,28.5656774 1.72696774,27.8709677 2.58064516,27.8709677 L4.65858065,27.8709677 C4.33083871,28.3034839 4.12903226,28.836129 4.12903226,29.4193548 C4.12903226,30.0025806 4.33083871,30.5352258 4.65858065,30.9677419 L2.58064516,30.9677419 C1.72696774,30.9677419 1.03225806,30.2730323 1.03225806,29.4193548 Z M29.4193548,30.9677419 L27.3414194,30.9677419 C27.6691613,30.5352258 27.8709677,30.0025806 27.8709677,29.4193548 C27.8709677,28.836129 27.6691613,28.3034839 27.3414194,27.8709677 L29.4193548,27.8709677 C30.2730323,27.8709677 30.9677419,28.5656774 30.9677419,29.4193548 C30.9677419,30.2730323 30.2730323,30.9677419 29.4193548,30.9677419 Z" id="Shape"></path>
                                <path d="M26.3225806,1.5483871 C25.4689032,1.5483871 24.7741935,2.24309677 24.7741935,3.09677419 C24.7741935,3.95045161 25.4689032,4.64516129 26.3225806,4.64516129 C27.1762581,4.64516129 27.8709677,3.95045161 27.8709677,3.09677419 C27.8709677,2.24309677 27.1762581,1.5483871 26.3225806,1.5483871 Z M26.3225806,3.61290323 C26.0381935,3.61290323 25.8064516,3.38116129 25.8064516,3.09677419 C25.8064516,2.8123871 26.0381935,2.58064516 26.3225806,2.58064516 C26.6069677,2.58064516 26.8387097,2.8123871 26.8387097,3.09677419 C26.8387097,3.38116129 26.6069677,3.61290323 26.3225806,3.61290323 Z" id="Shape"></path>
                                <path d="M9.29032258,12.3870968 L3.09677419,12.3870968 L3.09677419,19.6129032 L9.29032258,19.6129032 L9.29032258,12.3870968 Z M8.25806452,18.5806452 L4.12903226,18.5806452 L4.12903226,13.4193548 L8.25806452,13.4193548 L8.25806452,18.5806452 Z" id="Shape"></path>
                                <path d="M11.8709677,15.483871 C12.7246452,15.483871 13.4193548,14.7891613 13.4193548,13.9354839 C13.4193548,13.0818065 12.7246452,12.3870968 11.8709677,12.3870968 C11.0172903,12.3870968 10.3225806,13.0818065 10.3225806,13.9354839 C10.3225806,14.7891613 11.0172903,15.483871 11.8709677,15.483871 Z M11.8709677,13.4193548 C12.1553548,13.4193548 12.3870968,13.6510968 12.3870968,13.9354839 C12.3870968,14.219871 12.1553548,14.4516129 11.8709677,14.4516129 C11.5865806,14.4516129 11.3548387,14.219871 11.3548387,13.9354839 C11.3548387,13.6510968 11.5865806,13.4193548 11.8709677,13.4193548 Z" id="Shape"></path>
                                <path d="M16,15.483871 C16.8536774,15.483871 17.5483871,14.7891613 17.5483871,13.9354839 C17.5483871,13.0818065 16.8536774,12.3870968 16,12.3870968 C15.1463226,12.3870968 14.4516129,13.0818065 14.4516129,13.9354839 C14.4516129,14.7891613 15.1463226,15.483871 16,15.483871 Z M16,13.4193548 C16.2843871,13.4193548 16.516129,13.6510968 16.516129,13.9354839 C16.516129,14.219871 16.2843871,14.4516129 16,14.4516129 C15.7156129,14.4516129 15.483871,14.219871 15.483871,13.9354839 C15.483871,13.6510968 15.7156129,13.4193548 16,13.4193548 Z" id="Shape"></path>
                                <polygon id="Path" points="10.3225806 16.516129 17.5483871 16.516129 17.5483871 17.5483871 10.3225806 17.5483871"></polygon>
                                <polygon id="Path" points="10.3225806 18.5806452 11.3548387 18.5806452 11.3548387 19.6129032 10.3225806 19.6129032"></polygon>
                                <polygon id="Path" points="12.3870968 18.5806452 15.483871 18.5806452 15.483871 19.6129032 12.3870968 19.6129032"></polygon>
                                <polygon id="Path" points="16.516129 18.5806452 17.5483871 18.5806452 17.5483871 19.6129032 16.516129 19.6129032"></polygon>
                            </g>
                        </g>
                    </g>
                </g>
            </g>
        </g>
    </g>
</svg>