<?xml version="1.0" encoding="UTF-8"?>
<svg width="32px" height="32px" viewBox="0 0 32 32" version="1.1" xmlns="http://www.w3.org/2000/svg" xmlns:xlink="http://www.w3.org/1999/xlink">
    <title>manufacturing</title>
    <g id="Wizard-3" stroke="none" stroke-width="1" fill="none" fill-rule="evenodd">
        <g transform="translate(-276.000000, -722.000000)" fill-rule="nonzero" id="1">
            <g transform="translate(199.000000, 634.000000)">
                <g id="Group-2" transform="translate(20.000000, 20.000000)">
                    <g id="Group" transform="translate(47.000000, 58.000000)">
                        <g transform="translate(10.000000, 10.000000)" id="power-plant">
                            <g id="Group" transform="translate(0.472574, 5.198312)">
                                <polygon id="Path" fill="#EAEAF0" points="9.45309705 25.3164557 2.40229536 25.3164557 2.58592405 21.4683544 3.60668354 0.0513080169 8.24870886 0.0513080169 9.26946835 21.4683544"></polygon>
                                <polygon id="Path" fill="#D8D8D8" points="3.22646414 0.0518481013 8.62730802 0.0518481013 8.62730802 1.67210127 3.22646414 1.67210127"></polygon>
                                <polygon id="Path" fill="#D8D8D8" points="1.55247257 26.1265823 1.81333333 20.6582278 10.041789 20.6582278 10.3026498 26.1265823"></polygon>
                                <polygon id="Path" fill="#EAEAF0" points="21.7467679 25.3164557 14.6959662 25.3164557 14.8795949 21.4683544 15.9003544 0.0513080169 20.5423797 0.0513080169 21.5631392 21.4683544"></polygon>
                                <polygon id="Path" fill="#D8D8D8" points="15.520135 0.0518481013 20.9209789 0.0518481013 20.9209789 1.67210127 15.520135 1.67210127"></polygon>
                                <polygon id="Path" fill="#3BA9FD" points="29.4345992 25.2489451 5.92688608 25.2489451 5.92688608 9.87274262 29.4345992 7.0470211"></polygon>
                                <polygon id="Path" fill="#0E8BCE" points="0 24.7088608 31.0548523 24.7088608 31.0548523 26.3291139 0 26.3291139"></polygon>
                                <g transform="translate(17.620253, 15.257384)" fill="#EAEAF0" id="Path">
                                    <polygon points="0.0615696203 4.05063291 3.30207595 4.05063291 3.30207595 9.45147679 0.0615696203 9.45147679"></polygon>
                                    <polygon points="0.871696203 0.0450970464 2.49194937 0.0450970464 2.49194937 1.66535021 0.871696203 1.66535021"></polygon>
                                    <polygon points="5.78727426 0.0450970464 7.40752743 0.0450970464 7.40752743 1.66535021 5.78727426 1.66535021"></polygon>
                                    <polygon points="4.97714768 4.05063291 8.21765401 4.05063291 8.21765401 9.45147679 4.97714768 9.45147679"></polygon>
                                </g>
                            </g>
                            <g id="Group" fill="#051720">
                                <path d="M8.82983966,1.62025316 C7.67476935,1.62188994 6.7388914,2.55800947 6.73755274,3.71308017 C6.73755274,3.97407549 6.94913126,4.18565401 7.21012658,4.18565401 C7.47112191,4.18565401 7.68270042,3.97407549 7.68270042,3.71308017 C7.68329591,3.0794812 8.19678078,2.56599633 8.83037975,2.56540084 L11.9058903,2.56540084 C12.1668856,2.56540084 12.3784641,2.35382233 12.3784641,2.092827 C12.3784641,1.83183168 12.1668856,1.62025316 11.9058903,1.62025316 L8.82983966,1.62025316 Z" id="Path"></path>
                                <path d="M14.7370127,1.62025316 L13.8998819,1.62025316 C13.6388865,1.62025316 13.427308,1.83183168 13.427308,2.092827 C13.427308,2.35382233 13.6388865,2.56540084 13.8998819,2.56540084 L14.7370127,2.56540084 C14.998008,2.56540084 15.2095865,2.35382233 15.2095865,2.092827 C15.2095865,1.83183168 14.998008,1.62025316 14.7370127,1.62025316 L14.7370127,1.62025316 Z" id="Path"></path>
                                <path d="M12.1421772,0.945147679 L14.7370127,0.945147679 C14.998008,0.945147679 15.2095865,0.733569164 15.2095865,0.47257384 C15.2095865,0.211578515 14.998008,0 14.7370127,0 L12.1421772,0 C11.8811819,0 11.6696034,0.211578515 11.6696034,0.47257384 C11.6696034,0.733569164 11.8811819,0.945147679 12.1421772,0.945147679 L12.1421772,0.945147679 Z" id="Path"></path>
                                <path d="M5.58933333,4.1856547 C5.7147832,4.18586921 5.83516474,4.13616671 5.92392197,4.0475108 C6.0126792,3.95885489 6.06251917,3.8385302 6.06244726,3.71308017 C6.06408386,2.18528249 7.30204234,0.947082421 8.82983966,0.945147679 L10.0774346,0.945147679 C10.3384299,0.945147679 10.5500084,0.733569164 10.5500084,0.47257384 C10.5500084,0.211578515 10.3384299,4.79691298e-16 10.0774346,4.79691298e-16 L8.82983966,4.79691298e-16 C6.78029845,0.00253000362 5.11953144,1.66353861 5.1172995,3.71308017 C5.11722794,3.83834293 5.16691968,3.95850371 5.25544319,4.0471285 C5.34396669,4.13575329 5.46407057,4.18558241 5.58933333,4.1856547 L5.58933333,4.1856547 Z" id="Path"></path>
                                <path d="M21.1235105,1.62025316 C19.9682293,1.62159245 19.0320228,2.55779894 19.0306835,3.71308017 C19.0306835,3.97407549 19.2422621,4.18565401 19.5032574,4.18565401 C19.7642527,4.18565401 19.9758312,3.97407549 19.9758312,3.71308017 C19.9764267,3.0794812 20.4899116,2.56599633 21.1235105,2.56540084 L22.5485232,2.56540084 C22.8095185,2.56540084 23.021097,2.35382233 23.021097,2.092827 C23.021097,1.83183168 22.8095185,1.62025316 22.5485232,1.62025316 L21.1235105,1.62025316 Z" id="Path"></path>
                                <path d="M24.0675105,2.092827 C24.0674389,2.21818334 24.1172047,2.33842601 24.2058451,2.42706634 C24.2944854,2.51570667 24.414728,2.56547254 24.5400844,2.56540092 L27.0306835,2.56540092 C27.2916789,2.56540092 27.5032574,2.35382232 27.5032574,2.092827 C27.5032574,1.83183168 27.2916789,1.62025309 27.0306835,1.62025309 L24.5400844,1.62025309 C24.414728,1.62018147 24.2944854,1.66994733 24.2058451,1.75858767 C24.1172047,1.847228 24.0674389,1.96747066 24.0675105,2.092827 L24.0675105,2.092827 Z" id="Path"></path>
                                <path d="M26.3796118,0.945147679 L27.0306835,0.945147679 C27.2916789,0.945147679 27.5032574,0.733569164 27.5032574,0.47257384 C27.5032574,0.211578515 27.2916789,0 27.0306835,0 L26.3796118,0 C26.1186165,0 25.907038,0.211578515 25.907038,0.47257384 C25.907038,0.733569164 26.1186165,0.945147679 26.3796118,0.945147679 L26.3796118,0.945147679 Z" id="Path"></path>
                                <path d="M17.8830042,4.18565409 C18.1439995,4.18565409 18.3555781,3.97407549 18.3555781,3.71308017 C18.3572152,2.18507192 19.5955023,0.946784859 21.1235105,0.945147679 L23.7804557,0.945147679 C24.041451,0.945147674 24.2530295,0.733569161 24.2530295,0.47257384 C24.2530295,0.211578519 24.041451,-7.19536948e-16 23.7804557,-7.19536948e-16 L21.1235105,-7.19536948e-16 C19.0737584,0.00223244214 17.4126628,1.66332804 17.4104303,3.71308017 C17.4103587,3.83843651 17.4601245,3.95867917 17.5487649,4.04731951 C17.6374052,4.13595984 17.7576479,4.1857257 17.8830042,4.18565409 L17.8830042,4.18565409 Z" id="Path"></path>
                                <path d="M28.7594937,17.7512236 L28.7594937,16.1309705 C28.7594937,15.8699751 28.5479152,15.6583966 28.2869198,15.6583966 C28.0259245,15.6583966 27.814346,15.8699751 27.814346,16.1309705 L27.814346,17.7512236 C27.814346,18.012219 28.0259245,18.2237975 28.2869198,18.2237975 C28.5479152,18.2237975 28.7594937,18.012219 28.7594937,17.7512236 Z" id="Path"></path>
                                <path d="M31.5274262,29.4345992 L30.3797468,29.4345992 L30.3797468,12.6649789 L31.583865,12.5202363 C31.8379675,12.4836602 32.0163934,12.2509124 31.9857252,11.9960294 C31.9550571,11.7411463 31.7265136,11.5573661 31.4709873,11.5821097 L27.2224135,12.0927595 C26.9737556,12.122028 26.7910803,12.3401547 26.805913,12.5900895 C26.8207458,12.8400244 27.0279379,13.0350139 27.2783122,13.0346667 C27.2973598,13.0346839 27.3163898,13.0335114 27.3352911,13.0311561 L29.4345992,12.7786667 L29.4345992,29.4345992 L26.7830549,29.4345992 L26.7830549,24.5063291 C26.7830549,24.2453338 26.5714763,24.0337553 26.310481,24.0337553 L23.0699747,24.0337553 C22.9446183,24.0336836 22.8243757,24.0834494 22.7357353,24.1720898 C22.647095,24.2607301 22.5973292,24.3809728 22.5974008,24.5063291 L22.5974008,29.4345992 L21.8682869,29.4345992 L21.8682869,24.5063291 C21.8682869,24.2453338 21.6567084,24.0337553 21.3957131,24.0337553 L18.1552068,24.0337553 C18.0298504,24.0336836 17.9096077,24.0834494 17.8209674,24.1720898 C17.7323271,24.2607301 17.6825612,24.3809728 17.6826329,24.5063291 L17.6826329,29.4345992 L13.8172489,29.4345992 C13.5562536,29.4345992 13.3446751,29.6461777 13.3446751,29.907173 C13.3446751,30.1681683 13.5562536,30.3797468 13.8172489,30.3797468 L31.0548523,30.3797468 L31.0548523,31.0548523 L0.945147679,31.0548523 L0.945147679,30.3797468 L8.41640506,30.3797468 C8.67740039,30.3797468 8.8889789,30.1681683 8.8889789,29.907173 C8.8889789,29.6461777 8.67740039,29.4345992 8.41640506,29.4345992 L6.87257384,29.4345992 L6.87257384,15.4904304 L24.5965232,13.3597975 C24.8556543,13.3286272 25.040453,13.0932914 25.0092827,12.8341603 C24.9781124,12.5750293 24.7427766,12.3902306 24.4836456,12.4214008 L21.8458734,12.7384304 L21.5866329,7.30086076 C21.7565215,7.22503891 21.8659854,7.05645398 21.8661266,6.8704135 L21.8661266,5.25016034 C21.8659776,4.98922675 21.6544863,4.7775865 21.3935527,4.7775865 L15.9927089,4.7775865 C15.7317135,4.7775865 15.520135,4.98916501 15.520135,5.25016034 L15.520135,6.8704135 C15.5198255,7.05729591 15.6298609,7.22674405 15.8007089,7.30248101 L15.5063629,13.5012996 L9.62133333,14.2088101 L9.48631224,11.3323207 C9.4739336,11.0713254 9.25232022,10.8697817 8.99132489,10.8821603 C8.73032957,10.894539 8.52878592,11.1161524 8.54116456,11.3771477 L8.68050633,14.3219578 L4.72276793,14.796962 C4.47510893,14.8273071 4.29371227,15.0449596 4.30849806,15.2940322 C4.32328385,15.5431049 4.52915693,15.7377677 4.77866667,15.7385992 C4.79770539,15.7385888 4.81672844,15.7375069 4.83564557,15.7353586 L5.92742616,15.6038481 L5.92742616,25.3839662 L3.59291139,25.3839662 L4.45272574,7.34298734 L8.34997468,7.34298734 L8.43368776,9.11392405 C8.44565296,9.36591838 8.65344329,9.56407998 8.90572152,9.56408439 L8.92813502,9.56408439 C9.18886852,9.55169934 9.39024517,9.33037842 9.37802532,9.06963713 L9.29404219,7.30086076 C9.46376646,7.2249324 9.5730188,7.05634748 9.57299578,6.8704135 L9.57299578,5.25016034 C9.57299578,4.98916501 9.36141727,4.7775865 9.10042194,4.7775865 L3.69957806,4.7775865 C3.43858273,4.7775865 3.22700422,4.98916501 3.22700422,5.25016034 L3.22700422,6.8704135 C3.22700047,7.05759445 3.33759935,7.22709464 3.50892827,7.30248101 L2.64668354,25.3839662 L2.28725738,25.3839662 C2.03507872,25.3839638 1.8273282,25.5819686 1.81522363,25.8338565 L1.64239662,29.4345992 L0.47257384,29.4345992 C0.3472175,29.4345275 0.226974835,29.4842933 0.138334502,29.5729337 C0.0496941698,29.661574 -7.73551128e-08,29.7818167 -7.73551128e-08,29.907173 L-7.73551128e-08,31.5274262 C-7.73551128e-08,31.6527825 0.0496941698,31.7730252 0.138334502,31.8616655 C0.226974835,31.9503058 0.3472175,32.0000001 0.47257384,32.0000001 L31.5274262,32.0000001 C31.6527825,32.0000001 31.7730252,31.9503058 31.8616655,31.8616655 C31.9503058,31.7730252 31.9999999,31.6527825 31.9999999,31.5274262 L31.9999999,29.907173 C31.9999999,29.7818167 31.9503058,29.661574 31.8616655,29.5729337 C31.7730252,29.4842933 31.6527825,29.4345275 31.5274262,29.4345992 L31.5274262,29.4345992 Z M18.6269705,29.4345992 L18.6269705,24.978903 L20.9223291,24.978903 L20.9223291,29.4345992 L18.6269705,29.4345992 Z M23.5417384,29.4345992 L23.5417384,24.978903 L25.837097,24.978903 L25.837097,29.4345992 L23.5417384,29.4345992 Z M16.4652827,5.72273418 L20.9209789,5.72273418 L20.9209789,6.39783966 L16.4652827,6.39783966 L16.4652827,5.72273418 Z M16.7450464,7.34298734 L20.6425654,7.34298734 L20.9050464,12.8518481 L16.4590717,13.3862616 L16.7450464,7.34298734 Z M4.17161181,5.72273418 L8.6278481,5.72273418 L8.6278481,6.39783966 L4.1721519,6.39783966 L4.17161181,5.72273418 Z M2.73768776,26.3291139 L5.92742616,26.3291139 L5.92742616,29.4345992 L2.58862447,29.4345992 L2.73768776,26.3291139 Z" id="Shape"></path>
                                <path d="M10.464135,29.4345992 C10.2031397,29.4345992 9.99156118,29.6461777 9.99156118,29.907173 C9.99156118,30.1681683 10.2031397,30.3797468 10.464135,30.3797468 L11.7919325,30.3797468 C12.0529278,30.3797468 12.2645063,30.1681683 12.2645063,29.907173 C12.2645063,29.6461777 12.0529278,29.4345992 11.7919325,29.4345992 L10.464135,29.4345992 Z" id="Path"></path>
                                <path d="M15.5139241,22.931173 C15.5139957,22.8058167 15.4642299,22.685574 15.3755895,22.5969337 C15.2869492,22.5082933 15.1667066,22.4585275 15.0413502,22.4585991 L9.64050633,22.4585991 C9.379511,22.4585991 9.16793249,22.6701777 9.16793249,22.931173 C9.16793249,23.1921683 9.379511,23.4037469 9.64050633,23.4037469 L15.0413502,23.4037469 C15.1667066,23.4038185 15.2869492,23.3540527 15.3755895,23.2654123 C15.4642299,23.176772 15.5139957,23.0565293 15.5139241,22.931173 L15.5139241,22.931173 Z" id="Path"></path>
                                <path d="M15.0408101,19.2180928 L9.63996624,19.2180928 C9.37897092,19.2180928 9.16739241,19.4296713 9.16739241,19.6906667 C9.16739241,19.951662 9.37897092,20.1632405 9.63996624,20.1632405 L15.0408101,20.1632405 C15.3018055,20.1632405 15.513384,19.951662 15.513384,19.6906667 C15.513384,19.4296713 15.3018055,19.2180928 15.0408101,19.2180928 L15.0408101,19.2180928 Z" id="Path"></path>
                                <path d="M15.0408101,20.838346 L9.63996624,20.838346 C9.37897092,20.838346 9.16739241,21.0499245 9.16739241,21.3109198 C9.16739241,21.5719152 9.37897092,21.7834937 9.63996624,21.7834937 L15.0408101,21.7834937 C15.3018055,21.7834937 15.513384,21.5719152 15.513384,21.3109198 C15.513384,21.0499245 15.3018055,20.838346 15.0408101,20.838346 L15.0408101,20.838346 Z" id="Path"></path>
                                <path d="M18.9645232,20.0282193 C18.8391669,20.0281477 18.7189242,20.0779136 18.6302839,20.1665539 C18.5416435,20.2551942 18.4918777,20.3754369 18.4919493,20.5007932 L18.4919493,22.1210464 C18.4918777,22.2464028 18.5416435,22.3666454 18.6302839,22.4552858 C18.7189242,22.5439261 18.8391669,22.5936919 18.9645232,22.5936203 L20.5847764,22.5936203 C20.8457717,22.5936203 21.0573502,22.3820417 21.0573502,22.1210464 L21.0573502,20.5007932 C21.0573502,20.2397979 20.8457717,20.0282193 20.5847764,20.0282193 L18.9645232,20.0282193 Z M20.1122025,21.6484726 L19.437097,21.6484726 L19.437097,20.9733671 L20.1122025,20.9733671 L20.1122025,21.6484726 Z" id="Shape"></path>
                                <path d="M23.8801013,20.0282193 C23.7547449,20.0281477 23.6345023,20.0779136 23.5458619,20.1665539 C23.4572216,20.2551942 23.4074557,20.3754369 23.4075273,20.5007932 L23.4075273,22.1210464 C23.4074557,22.2464028 23.4572216,22.3666454 23.5458619,22.4552858 C23.6345023,22.5439261 23.7547449,22.5936919 23.8801013,22.5936203 L25.5003544,22.5936203 C25.7613498,22.5936203 25.9729283,22.3820417 25.9729283,22.1210464 L25.9729283,20.5007932 C25.9729283,20.2397979 25.7613498,20.0282193 25.5003544,20.0282193 L23.8801013,20.0282193 Z M25.0277806,21.6484726 L24.3526751,21.6484726 L24.3526751,20.9733671 L25.0277806,20.9733671 L25.0277806,21.6484726 Z" id="Shape"></path>
                            </g>
                        </g>
                    </g>
                </g>
            </g>
        </g>
    </g>
</svg>