<?xml version="1.0" encoding="UTF-8"?>
<svg width="31px" height="32px" viewBox="0 0 31 32" version="1.1" xmlns="http://www.w3.org/2000/svg" xmlns:xlink="http://www.w3.org/1999/xlink">
    <title>service</title>
    <g id="Wizard-3" stroke="none" stroke-width="1" fill="none" fill-rule="evenodd">
        <g transform="translate(-456.000000, -722.000000)" fill-rule="nonzero" id="1">
            <g transform="translate(199.000000, 634.000000)">
                <g id="Group-2" transform="translate(20.000000, 20.000000)">
                    <g id="Group" transform="translate(227.000000, 58.000000)">
                        <g transform="translate(10.000000, 10.000000)" id="customer-support">
                            <path d="M29.7639702,31.3647643 L0.56853598,31.3647643 C0.56853598,28.0718689 1.87639045,24.9137936 4.20481908,22.585365 C6.53324772,20.2569364 9.69132301,18.9489134 12.9842184,18.9490819 L17.3482878,18.9490819 C24.2050619,18.9496081 29.7634441,24.5079902 29.7639702,31.3647643 L29.7639702,31.3647643 Z" id="Path" fill="#11AFFF"></path>
                            <path d="M12.30134,18.9684566 C5.71972543,19.3306829 0.56853598,24.7731895 0.56853598,31.3647643 L24.0341439,31.3647643 C24.0341439,24.7732531 18.8828822,19.3308388 12.30134,18.9684566 Z" id="Path" fill="#36CEF4"></path>
                            <polygon id="Path" fill="#FCCA03" points="15.1662531 20.5670273 12.9613499 22.886273 15.1662531 25.1569231 17.3711563 22.886273"></polygon>
                            <path d="M7.60313648,20.1722283 L12.053598,23.5894789 L14.9156526,21.3661538 L12.2895881,18.9687742 C10.6633522,19.0568957 9.07062043,19.4659001 7.60313648,20.1722283 Z" id="Path" fill="#E0EFF4"></path>
                            <path d="M22.7293697,20.1722283 L18.2789082,23.5894789 L15.4168536,21.3661538 L18.0429181,18.9687742 C19.669154,19.0568957 21.2618858,19.4659001 22.7293697,20.1722283 Z" id="Path" fill="#C2DBE5"></path>
                            <path d="M20.0359702,22.239603 C19.0824165,21.3588399 17.9964932,20.6332476 16.817866,20.08933 L15.4171712,21.3680596 L18.2792258,23.5913846 L20.0359702,22.239603 Z" id="Path" fill="#E0EFF4"></path>
                            <polygon id="Path" fill="#FCAD02" points="17.3711563 22.886273 15.4155831 21.3667891 15.1662531 20.8833747 15.1662531 25.1569231"></polygon>
                            <path d="M12.6773995,3.89081886 L17.6551067,3.89081886 C19.9611189,3.89081886 21.8305112,5.76021111 21.8305112,8.06622333 L21.8305112,14.702531 C21.8305112,18.3830991 18.8468212,21.3667891 15.1662531,21.3667891 C11.485685,21.3667891 8.50199504,18.3830991 8.50199504,14.702531 L8.50199504,8.06622333 C8.50199504,5.76021111 10.3713873,3.89081886 12.6773995,3.89081886 Z" id="Path" fill="#FFC65C"></path>
                            <path d="M8.50199504,8.06622333 L8.50199504,14.702531 C8.50343666,17.8052799 10.6465501,20.4962886 13.670273,21.1920993 C16.6938696,20.4961618 18.8368257,17.8051853 18.8382333,14.702531 L18.8382333,8.06622333 C18.8382333,5.76021111 16.968841,3.89081886 14.6628288,3.89081886 L12.6773995,3.89081886 C10.3713873,3.89081886 8.50199504,5.76021111 8.50199504,8.06622333 L8.50199504,8.06622333 Z" id="Path" fill="#FFD89E"></path>
                            <path d="M6.99076923,26.7751861 L6.99076923,31.3647643 L5.8791067,31.3647643 L5.8791067,26.7751861 C5.8791067,26.468209 6.12796083,26.2193548 6.43493797,26.2193548 C6.7419151,26.2193548 6.99076923,26.468209 6.99076923,26.7751861 Z" id="Path" fill="#11AFFF"></path>
                            <polygon id="Path" fill="#FCAD02" points="17.1729628 31.3647643 13.1595434 31.3647643 15.1662531 25.1569231"></polygon>
                            <path d="M13.0404367,11.0394409 L10.6503623,11.0394409 C10.3433852,11.0394409 10.094531,11.2882983 10.094531,11.5952754 C10.094531,11.9022526 10.3433852,12.1511067 10.6503623,12.1511067 L11.6451414,12.1511067 C11.7466196,12.5862561 12.1521389,12.8809469 12.5973569,12.8430814 C13.0425748,12.805216 13.3925032,12.446275 13.4190372,12.0002382 C13.5865517,11.8450267 13.6417178,11.6029582 13.5579952,11.3904912 C13.4742726,11.1780241 13.2688029,11.0386591 13.0404367,11.0394409 L13.0404367,11.0394409 Z" id="Path" fill="#292929"></path>
                            <path d="M19.6821439,11.0394442 L17.2920695,11.0394442 C17.0637931,11.0386697 16.8583914,11.1779355 16.7746171,11.3902855 C16.6908427,11.6026356 16.7458336,11.844629 16.9131514,11.9999206 C16.9396853,12.4459573 17.2896137,12.8048983 17.7348317,12.8427638 C18.1800497,12.8806292 18.585569,12.5859385 18.6870471,12.1507891 L19.6818263,12.1507891 C19.9888034,12.1507891 20.2376576,11.9019349 20.2376576,11.5949578 C20.2376576,11.2879807 19.9888034,11.0391266 19.6818263,11.0391266 L19.6821439,11.0394442 Z" id="Path" fill="#292929"></path>
                            <polygon id="Path" fill="#292929" points="6.08555831 10.3702233 8.50199504 10.3702233 8.50199504 15.37334 6.08555831 15.37334"></polygon>
                            <path d="M17.1729628,2.16933002 C5.66471464,0.613002481 8.50199504,11.5952754 8.50199504,11.5952754 C10.3880099,8.86630273 11.9681588,9.9573201 15.6553846,8.00079404 C16.3680565,7.64626266 16.9448662,7.06789106 17.297469,6.35426303 C17.3964821,6.63886908 17.5143683,6.91655406 17.6503424,7.18546898 C18.9805261,9.79406452 21.8305112,10.5547593 21.8305112,10.5547593 C22.7874938,2.54538958 17.1729628,2.16933002 17.1729628,2.16933002 L17.1729628,2.16933002 Z" id="Path" fill="#CB6F2C"></path>
                            <path d="M3.67801449,12.8717816 C3.67801449,14.6094476 5.08667149,16.0181042 6.82433747,16.0181042 L6.82433747,9.7257761 C5.98978089,9.72527078 5.18925561,10.0565513 4.5991051,10.6466422 C4.00895459,11.2367332 3.67759324,12.037225 3.67801449,12.8717816 L3.67801449,12.8717816 Z" id="Path" fill="#FF6100"></path>
                            <polygon id="Path" fill="#292929" transform="translate(23.038412, 12.871782) rotate(-180.000000) translate(-23.038412, -12.871782) " points="21.8301935 10.3702233 24.2466303 10.3702233 24.2466303 15.37334 21.8301935 15.37334"></polygon>
                            <path d="M26.6544919,12.8717816 C26.6544919,11.1341157 25.2458347,9.72545906 23.5081687,9.72545906 L23.5081687,16.0181048 C24.3427804,16.0186102 25.1433539,15.6872861 25.7335135,15.0971264 C26.3236732,14.5069668 26.6549973,13.7063933 26.6544919,12.8717816 L26.6544919,12.8717816 Z" id="Path" fill="#EF3F00"></path>
                            <path d="M15.1662531,18.5584119 C14.869737,18.5580515 14.625712,18.3250012 14.6117169,18.0288153 C14.5977219,17.7326294 14.8186851,17.477608 15.1138462,17.4492903 L21.9743921,16.7915037 L21.9743921,15.37334 C21.9743921,15.0663628 22.2232462,14.8175087 22.5302233,14.8175087 C22.8372005,14.8175087 23.0860546,15.0663628 23.0860546,15.37334 L23.0860546,17.2965161 C23.0860546,17.5829452 22.8683874,17.8224729 22.5832655,17.8498065 L15.2192953,18.555871 C15.2011911,18.5574591 15.1834045,18.5584119 15.1662531,18.5584119 L15.1662531,18.5584119 Z" id="Path" fill="#292929"></path>
                            <circle id="Oval" fill="#FF6100" cx="15.1662531" cy="18.0025806" r="1.09673449"></circle>
                            <polygon id="Path" fill="#FCCA03" points="15.0665211 31.3647643 15.1662531 25.1569231 13.1595434 31.3647643"></polygon>
                            <path d="M17.1729628,2.16933002 C13.6073846,1.68686849 11.4199504,2.4088139 10.0973896,3.63418362 C16.7803871,2.90112159 17.297469,6.35426303 17.297469,6.35426303 C17.3964795,6.6388701 17.5143657,6.91655525 17.6503424,7.18546898 C18.9805261,9.79406452 21.8305112,10.5547593 21.8305112,10.5547593 C22.7874938,2.54538958 17.1729628,2.16933002 17.1729628,2.16933002 Z" id="Path" fill="#AF5819"></path>
                            <g id="Group" fill="#5D0000">
                                <path d="M26.9181141,22.5985112 C26.7842491,22.4508446 26.5815661,22.3861567 26.3869072,22.4289723 C26.1922482,22.4717878 26.0354146,22.6155519 25.9758657,22.8057603 C25.9163168,22.9959686 25.9631692,23.2035011 26.09866,23.3496774 L26.1720298,23.4303524 C26.3779677,23.656434 26.7278552,23.6736867 26.9550359,23.4689619 C27.1822166,23.2642371 27.201342,22.914447 26.9978362,22.6861737 L26.9181141,22.5985112 Z" id="Path"></path>
                                <path d="M28.3111861,24.4184615 C28.1447875,24.1640756 27.8049013,24.090544 27.548235,24.2534033 C27.2915688,24.4162626 27.2133366,24.7550977 27.3726253,25.013995 C28.5740753,26.9089753 29.210765,29.1070365 29.208139,31.3507891 L29.208139,31.3647643 C29.2084698,31.5114392 29.2673614,31.6519087 29.3717305,31.7549657 C29.4760996,31.8580227 29.6173028,31.9151327 29.7639702,31.9136377 C30.0722926,31.9102967 30.3203422,31.6591288 30.3198097,31.3507891 C30.3225652,28.8960988 29.6258244,26.4914396 28.3111861,24.4184615 L28.3111861,24.4184615 Z" id="Path"></path>
                                <path d="M23.8966154,26.2193548 C23.5896383,26.2193548 23.3407841,26.468209 23.3407841,26.7751861 L23.3407841,31.3647643 C23.3407841,31.6717414 23.5896383,31.9205955 23.8966154,31.9205955 C24.2035925,31.9205955 24.4524467,31.6717414 24.4524467,31.3647643 L24.4524467,26.7748685 C24.4522713,26.4680154 24.2034685,26.2193548 23.8966154,26.2193548 L23.8966154,26.2193548 Z" id="Path"></path>
                                <path d="M6.43589082,26.2193548 C6.12891369,26.2193548 5.88005955,26.468209 5.88005955,26.7751861 L5.88005955,31.3647643 C5.88005955,31.6717414 6.12891369,31.9205955 6.43589082,31.9205955 C6.74286795,31.9205955 6.99172208,31.6717414 6.99172208,31.3647643 L6.99172208,26.7748685 C6.99154674,26.4680154 6.74274396,26.2193548 6.43589082,26.2193548 L6.43589082,26.2193548 Z" id="Path"></path>
                                <path d="M13.596268,11.5952754 C13.596268,11.2882983 13.3474139,11.0394442 13.0404367,11.0394442 L10.6503623,11.0394442 C10.3433852,11.0394442 10.094531,11.2882983 10.094531,11.5952754 C10.094531,11.9022526 10.3433852,12.1511067 10.6503623,12.1511067 L11.6451414,12.1511067 C11.7466196,12.5862561 12.1521389,12.8809469 12.5973569,12.8430814 C13.0425748,12.805216 13.3925032,12.446275 13.4190372,12.0002382 C13.5318781,11.895784 13.5960999,11.7490406 13.596268,11.5952754 L13.596268,11.5952754 Z" id="Path"></path>
                                <path d="M16.9131514,11.9999206 C16.9396853,12.4459573 17.2896137,12.8048983 17.7348317,12.8427638 C18.1800497,12.8806292 18.585569,12.5859385 18.6870471,12.1507891 L19.6818263,12.1507891 C19.9888034,12.1507891 20.2376576,11.9019349 20.2376576,11.5949578 C20.2376576,11.2879807 19.9888034,11.0391221 19.6818263,11.0391221 L17.2920695,11.0391221 C17.0636452,11.0382098 16.8580551,11.1775273 16.7742503,11.3900248 C16.6904454,11.6025224 16.7455934,11.8446698 16.9131514,11.9999206 L16.9131514,11.9999206 Z" id="Path"></path>
                                <path d="M11.0975682,2.27795533 C11.0505608,2.30145906 11.0045062,2.3252804 10.9584516,2.34973697 C10.7819116,2.4421009 10.6683127,2.6218918 10.6606966,2.82098846 C10.6530805,3.02008512 10.7526124,3.20802896 10.9215804,3.31360968 C11.0905484,3.41919041 11.3031032,3.42625587 11.4787097,3.33212903 L11.5949578,3.27241687 C11.7726013,3.18362352 11.8893799,3.00680343 11.9013043,2.80856302 C11.9132287,2.6103226 11.8184873,2.42077931 11.6527683,2.31133225 C11.4870493,2.20188519 11.2755293,2.18916198 11.0978859,2.27795533 L11.0975682,2.27795533 Z" id="Path"></path>
                                <path d="M23.5084864,9.16994541 C23.2015092,9.16994541 22.9526551,9.41879954 22.9526551,9.72577667 L22.9526551,9.81439206 L22.4571712,9.81439206 C22.6436129,7.17816377 22.1252605,5.09967246 20.907196,3.63164268 C19.9832016,2.51606007 18.6682293,1.79523942 17.2307692,1.61635732 C15.7934947,1.39167862 14.3287637,1.40896253 12.8971911,1.6674938 C12.5965289,1.72967859 12.4032048,2.02382418 12.4653896,2.32448635 C12.5275744,2.62514853 12.82172,2.81847264 13.1223821,2.75628784 C14.4363278,2.52211385 15.7801959,2.50944598 17.0983226,2.71880893 C17.1110273,2.71880893 17.1234144,2.72166749 17.1358015,2.72262035 C18.2771189,2.87431503 19.3188279,3.45207152 20.0518511,4.33993052 C21.0891911,5.59039206 21.5240099,7.42082382 21.3470968,9.78644169 C19.9844138,9.22966786 18.8542104,8.22190315 18.1455087,6.93169231 C18.0208244,6.68506349 17.912701,6.43040587 17.8218561,6.16940943 C17.7470319,5.95755666 17.5520236,5.81158481 17.3276712,5.79949147 C17.1033188,5.78739812 16.8937492,5.91156187 16.7965856,6.11414392 C16.4936436,6.71991654 16.0016017,7.21050893 15.394938,7.51166253 C14.3042397,8.0847089 13.1438342,8.51389561 11.9427494,8.78848635 C10.7793151,9.08927047 9.80835732,9.34018859 8.84025806,10.3095583 C8.65699256,8.81675434 8.60680893,6.19005459 10.0996129,4.43362779 C10.2283491,4.28225356 10.266549,4.07369807 10.1998232,3.88652215 C10.1330974,3.69934623 9.97158298,3.56198636 9.77612096,3.52618468 C9.58065894,3.49038299 9.38094461,3.56157862 9.25220844,3.71295285 C7.68508189,5.55831266 7.53897767,8.09036228 7.67047146,9.81439206 L7.37985112,9.81439206 L7.37985112,7.51960298 C7.37985112,3.98610422 10.8736476,1.11166253 15.1662531,1.11166253 C19.4588586,1.11166253 22.9526551,3.98610422 22.9526551,7.51960298 C22.9526551,7.82658011 23.2015092,8.07543424 23.5084864,8.07543424 C23.8154635,8.07543424 24.0643176,7.82658011 24.0643176,7.51960298 C24.0643176,3.37341935 20.0724963,-4.51362135e-15 15.1662531,-4.51362135e-15 C10.2600099,-4.51362135e-15 6.26818859,3.37341935 6.26818859,7.51960298 L6.26818859,15.4022432 C5.34366646,15.1991051 4.60355147,14.5078774 4.33780657,13.5993699 C4.07206167,12.6908624 4.32300342,11.7097435 4.99231762,11.040397 C5.2093943,10.8233203 5.2093943,10.4713695 4.99231762,10.2542928 C4.77524093,10.0372161 4.42329009,10.0372161 4.2062134,10.2542928 C3.14663403,11.3129284 2.82940351,12.9057475 3.40253795,14.2895591 C3.97567239,15.6733707 5.32621567,16.5754465 6.82401985,16.5748883 C7.13099698,16.5748883 7.37985112,16.3260342 7.37985112,16.0190571 L7.37985112,15.928536 L8.0516129,15.928536 C8.23763393,17.0086801 8.66841873,18.0319162 9.31096774,18.919861 C3.81034012,20.569572 0.0353055639,25.6221221 0.0127047146,31.3647643 C0.0130355317,31.5114392 0.0719272056,31.6519087 0.176296293,31.7549657 C0.280665381,31.8580227 0.421868564,31.9151327 0.56853598,31.9136079 C0.876858401,31.9102967 1.12490793,31.6591288 1.12436725,31.3507891 C1.14848327,25.9170285 4.84563208,21.1878134 10.1129529,19.8530223 C11.0590483,20.7825617 12.2431003,21.4332738 13.5349677,21.7336377 L12.053598,22.8872258 L9.86012903,21.2038511 C9.61645959,21.0224445 9.27228597,21.0702681 9.08730636,21.3112363 C8.90232675,21.5522046 8.94507063,21.897046 9.18328536,22.0855583 L11.7172407,24.0306501 C11.917782,24.1845956 12.1969508,24.1838125 12.3966253,24.0287444 L12.9095782,23.6304516 L14.535464,25.304933 L12.6316625,31.1945211 C12.5667957,31.3845148 12.6094253,31.5947231 12.7431835,31.7444363 C12.8769417,31.8941496 13.0810387,31.960098 13.2771113,31.9169607 C13.473184,31.8738235 13.630757,31.7283053 13.68933,31.5362779 L15.1662531,26.9641687 L16.6438114,31.5356427 C16.7023845,31.7276701 16.8599574,31.8731883 17.0560301,31.9163255 C17.2521028,31.9594628 17.4561998,31.8935143 17.589958,31.7438011 C17.7237162,31.5940878 17.7663457,31.3838796 17.7014789,31.1938859 L15.797995,25.3042978 L17.4238809,23.6298164 L17.9368337,24.0277916 C18.1365082,24.1828597 18.4156771,24.1836428 18.6162184,24.0296973 L22.7890819,20.8262035 C23.4770394,21.1792944 24.1287308,21.5989684 24.7348089,22.079206 C24.9749528,22.2704966 25.3246995,22.2308932 25.5159901,21.9907494 C25.7072807,21.7506056 25.6676773,21.4008588 25.4275335,21.2095682 C24.118509,20.1712585 22.6217276,19.3948302 21.0189975,18.9227196 C21.2429683,18.6127792 21.441998,18.2855592 21.6142134,17.944139 L22.5797717,17.8513945 C22.8648936,17.824061 23.0825586,17.5845333 23.0825608,17.2981042 L23.0825608,16.373201 C23.187033,16.5000346 23.3425787,16.5737325 23.5068983,16.5742531 C24.8376641,16.5865796 26.072651,15.8836916 26.7416177,14.7332251 C27.4105844,13.5827586 27.4105844,12.1617575 26.7416177,11.011291 C26.072651,9.86082449 24.8376641,9.1579365 23.5068983,9.17026303 L23.5084864,9.16994541 Z M22.9526551,14.8168734 L22.3834839,14.8168734 C22.3834839,14.7784417 22.3863424,14.7403275 22.3863424,14.7018958 L22.3863424,10.9260546 L22.9526551,10.9260546 L22.9526551,14.8168734 Z M7.38016873,14.8168734 L7.38016873,10.9260546 L7.8026005,10.9260546 C7.86072457,11.2846452 7.91789578,11.5419156 7.94648139,11.6622928 L7.94648139,14.702531 C7.94648139,14.7412804 7.94870471,14.7790769 7.94933995,14.8175087 L7.38016873,14.8168734 Z M15.1662531,24.359067 L13.7922382,22.9440794 L15.1093995,21.9213499 L15.1665707,21.9213499 C15.1665707,21.9213499 15.2043672,21.9213499 15.2237419,21.9213499 L16.5409032,22.9440794 L15.1662531,24.359067 Z M18.2789082,22.8872258 L16.7949975,21.7349082 C18.0864658,21.4348862 19.2702675,20.7847404 20.2163772,19.8558809 C20.700333,19.9758711 21.1761386,20.1266224 21.6408933,20.3072159 L18.2789082,22.8872258 Z M15.1662531,20.8109578 C11.7942584,20.8071071 9.06167701,18.0745257 9.0578263,14.702531 L9.0578263,11.7747295 C10.027196,10.435335 10.8644367,10.2155434 12.2209826,9.8648933 C13.5062884,9.56722791 14.7480567,9.10576791 15.9158313,8.49183127 C16.3964296,8.24261999 16.8283644,7.90912114 17.191067,7.50721588 C18.329727,9.67527543 20.3961489,10.6322581 21.2746799,10.9552754 L21.2746799,14.7031663 C21.2735592,15.4544347 21.132904,16.1989596 20.859871,16.8988586 L16.6568337,17.3009628 C16.315739,16.5736343 15.5007802,16.1972221 14.7258864,16.4090991 C13.9509926,16.6209761 13.4409375,17.3596831 13.5173721,18.1593768 C13.5938067,18.9590705 14.2345594,19.5877835 15.0355589,19.6490369 C15.8365585,19.7102903 16.5654586,19.1863164 16.7626005,18.4075434 L20.256397,18.0724566 C19.1265483,19.7814256 17.2149434,20.8098704 15.1662531,20.8109578 L15.1662531,20.8109578 Z M24.0643176,15.4022432 L24.0643176,10.3416377 C25.2522812,10.6029818 26.0984767,11.6555695 26.0984767,12.8719404 C26.0984767,14.0883114 25.2522812,15.1408991 24.0643176,15.4022432 Z" id="Shape"></path>
                            </g>
                        </g>
                    </g>
                </g>
            </g>
        </g>
    </g>
</svg>