<?xml version="1.0" encoding="UTF-8"?>
<svg width="32px" height="32px" viewBox="0 0 32 32" version="1.1" xmlns="http://www.w3.org/2000/svg" xmlns:xlink="http://www.w3.org/1999/xlink">
    <title>stock</title>
    <g id="Wizard-4" stroke="none" stroke-width="1" fill="none" fill-rule="evenodd">
        <g transform="translate(-278.000000, -1575.000000)" fill-rule="nonzero" id="1">
            <g transform="translate(199.000000, 1363.000000)">
                <g id="Group-2" transform="translate(20.000000, 20.000000)">
                    <g id="Group" transform="translate(47.000000, 182.000000)">
                        <g transform="translate(12.000000, 10.000000)" id="inventory">
                            <g id="Group" transform="translate(0.516129, 0.516129)">
                                <path d="M30.4516129,20.6451613 L20.6451613,20.6451613 L20.6451613,30.4516129 C20.6451613,30.7354839 20.8774194,30.9677419 21.1612903,30.9677419 L30.4516129,30.9677419 C30.7354839,30.9677419 30.9677419,30.7354839 30.9677419,30.4516129 L30.9677419,21.1612903 C30.9677419,20.8774194 30.7354839,20.6451613 30.4516129,20.6451613 Z" id="Path" fill="#D3A06C"></path>
                                <path d="M29.4193548,0 L20.1290323,0 C19.8451613,0 19.6129032,0.232258065 19.6129032,0.516129032 L19.6129032,10.3225806 L29.4193548,10.3225806 C29.7032258,10.3225806 29.9354839,10.0903226 29.9354839,9.80645161 L29.9354839,0.516129032 C29.9354839,0.232258065 29.7032258,0 29.4193548,0 Z" id="Path" fill="#D3A06C"></path>
                                <path d="M18.0645161,10.3225806 C17.7806452,10.3225806 17.5483871,10.5548387 17.5483871,10.8387097 L17.5483871,16.0774194 L17.5432258,16.0825806 C18.1987097,16.8825806 18.5806452,17.9045161 18.5806452,18.9987097 L18.5806452,20.6451613 L27.8709677,20.6451613 L27.8709677,10.3225806 L18.0645161,10.3225806 Z" id="Path" fill="#D3A06C"></path>
                                <polygon id="Path" fill="#B27946" points="22.7096774 0 26.8387097 0 26.8387097 3.09677419 22.7096774 3.09677419"></polygon>
                                <polygon id="Path" fill="#B27946" points="20.6451613 10.3225806 24.7741935 10.3225806 24.7741935 13.4193548 20.6451613 13.4193548"></polygon>
                                <polygon id="Path" fill="#B27946" points="23.7419355 20.6451613 27.8709677 20.6451613 27.8709677 23.7419355 23.7419355 23.7419355"></polygon>
                                <path d="M11.3548387,4.12903226 L9.29032258,4.12903226 L7.22580645,4.12903226 C6.08516129,4.12903226 5.16129032,5.05290323 5.16129032,6.19354839 L4.64516129,6.19354839 C4.23225806,6.19354839 3.85548387,6.35870968 3.58193548,6.61677419 L3.32387097,5.84258065 C3.17419355,5.39354839 3.09677419,4.91870968 3.09677419,4.43870968 C3.09677419,3.21032258 3.59225806,2.10580645 4.39741935,1.30064516 C5.20258065,0.495483871 6.30709677,-2.29207334e-16 7.53548387,-2.29207334e-16 L11.0451613,-2.29207334e-16 C13.4967742,-2.29207334e-16 15.483871,1.98709677 15.483871,4.43870968 C15.483871,4.91870968 15.4064516,5.39354839 15.2567742,5.84258065 L14.9987097,6.61677419 C14.7251613,6.35870968 14.3483871,6.19354839 13.9354839,6.19354839 L13.4193548,6.19354839 L13.4193548,5.67741935 L11.8709677,5.67741935 C11.5406452,5.34709677 11.3548387,4.89806452 11.3548387,4.43354839 L11.3548387,4.12903226 Z" id="Path" fill="#656D78"></path>
                                <path d="M13.4193548,27.8709677 L13.4193548,30.9677419 L5.16129032,30.9677419 L5.16129032,27.8709677 L6.19354839,27.8709677 C6.76129032,27.8709677 7.22580645,27.4064516 7.22580645,26.8387097 L8.77419355,26.8387097 C9.20258065,26.8387097 9.58967742,26.6632258 9.8683871,26.3845161 C10.1470968,26.1058065 10.3225806,25.7187097 10.3225806,25.2903226 C10.3225806,24.4335484 9.63096774,23.7419355 8.77419355,23.7419355 L7.22580645,23.7419355 L5.16129032,23.7419355 L5.16129032,20.1290323 C5.16129032,19.8451613 5.39354839,19.6129032 5.67741935,19.6129032 L7.22580645,19.6129032 L7.22580645,21.1612903 C7.22580645,21.4451613 7.45806452,21.6774194 7.74193548,21.6774194 L10.8387097,21.6774194 C11.1225806,21.6774194 11.3548387,21.4451613 11.3548387,21.1612903 L11.3548387,19.6129032 L12.9032258,19.6129032 C13.1870968,19.6129032 13.4193548,19.8451613 13.4193548,20.1290323 L13.4193548,23.7419355 L13.4193548,27.8709677 Z" id="Path" fill="#E6E9ED"></path>
                                <polygon id="Path" fill="#FCD770" points="13.4193548 27.8709677 15.483871 27.8709677 15.483871 30.9677419 13.4193548 30.9677419"></polygon>
                                <polygon id="Path" fill="#FCD770" points="3.09677419 27.8709677 5.16129032 27.8709677 5.16129032 30.9677419 3.09677419 30.9677419"></polygon>
                                <path d="M0,24.7741935 L0,18.9987097 C0,16.6864516 1.69806452,14.7251613 3.98967742,14.4 L5.74967742,14.1470968 L6.70967742,17.0322581 L9.29032258,16 L11.8709677,17.0322581 L12.8309677,14.1470968 L14.5909677,14.4 C15.7935484,14.5703226 16.836129,15.1948387 17.5432258,16.0825806 C18.1987097,16.8825806 18.5806452,17.9045161 18.5806452,18.9987097 L18.5806452,20.6451613 L18.5806452,24.7741935 C18.5806452,26.4825806 17.1922581,27.8709677 15.483871,27.8709677 L13.4193548,27.8709677 L13.4193548,23.7419355 L13.4193548,20.1290323 C13.4193548,19.8451613 13.1870968,19.6129032 12.9032258,19.6129032 L11.3548387,19.6129032 L7.22580645,19.6129032 L5.67741935,19.6129032 C5.39354839,19.6129032 5.16129032,19.8451613 5.16129032,20.1290323 L5.16129032,23.7419355 L7.22580645,23.7419355 L7.22580645,26.8387097 C7.22580645,27.4064516 6.76129032,27.8709677 6.19354839,27.8709677 L5.16129032,27.8709677 L3.09677419,27.8709677 C1.3883871,27.8709677 0,26.4825806 0,24.7741935 L0,24.7741935 Z" id="Path" fill="#FCD770"></path>
                                <polygon id="Path" fill="#FFC729" points="12.8309677 14.1470968 11.8709677 17.0322581 9.29032258 16 11.3548387 13.9354839"></polygon>
                                <polygon id="Path" fill="#FFC729" points="9.29032258 16 6.70967742 17.0322581 5.74967742 14.1470968 7.22580645 13.9354839"></polygon>
                                <path d="M11.3548387,19.6129032 L11.3548387,21.1612903 C11.3548387,21.4451613 11.1225806,21.6774194 10.8387097,21.6774194 L7.74193548,21.6774194 C7.45806452,21.6774194 7.22580645,21.4451613 7.22580645,21.1612903 L7.22580645,19.6129032 L11.3548387,19.6129032 Z" id="Path" fill="#B4DD7F"></path>
                                <path d="M8.77419355,23.7419355 C9.63096774,23.7419355 10.3225806,24.4335484 10.3225806,25.2903226 C10.3225806,25.7187097 10.1470968,26.1058065 9.8683871,26.3845161 C9.58967742,26.6632258 9.20258065,26.8387097 8.77419355,26.8387097 L7.22580645,26.8387097 L7.22580645,23.7419355 L8.77419355,23.7419355 Z" id="Path" fill="#F0D0B4"></path>
                                <path d="M10.8851613,12.0670968 L11.3548387,13.9354839 L9.29032258,16 L7.22580645,13.9354839 L7.69548387,12.0670968 C8.18580645,12.2735484 8.72774194,12.3870968 9.29032258,12.3870968 C9.85290323,12.3870968 10.3948387,12.2735484 10.8851613,12.0670968 Z" id="Path" fill="#F0D0B4"></path>
                                <path d="M14.9987097,6.61677419 C15.2980645,6.90064516 15.483871,7.29806452 15.483871,7.74193548 C15.483871,8.17032258 15.3083871,8.55741935 15.0296774,8.83612903 C14.7509677,9.11483871 14.363871,9.29032258 13.9354839,9.29032258 L13.2903226,9.29032258 C13.3729032,8.96 13.4193548,8.61419355 13.4193548,8.25806452 L13.4193548,6.19354839 L13.9354839,6.19354839 C14.3483871,6.19354839 14.7251613,6.35870968 14.9987097,6.61677419 Z" id="Path" fill="#F0D0B4"></path>
                                <path d="M5.29032258,9.29032258 L4.64516129,9.29032258 C4.21677419,9.29032258 3.82967742,9.11483871 3.55096774,8.83612903 C3.27225806,8.55741935 3.09677419,8.17032258 3.09677419,7.74193548 C3.09677419,7.29806452 3.28258065,6.90064516 3.58193548,6.61677419 C3.85548387,6.35870968 4.23225806,6.19354839 4.64516129,6.19354839 L5.16129032,6.19354839 L5.16129032,8.25806452 C5.16129032,8.61419355 5.20774194,8.96 5.29032258,9.29032258 Z" id="Path" fill="#F0D0B4"></path>
                                <path d="M11.8709677,5.67741935 L13.4193548,5.67741935 L13.4193548,6.19354839 L13.4193548,8.25806452 C13.4193548,8.61419355 13.3729032,8.96 13.2903226,9.29032258 C12.9651613,10.5496774 12.0619355,11.5767742 10.8851613,12.0670968 C10.3948387,12.2735484 9.85290323,12.3870968 9.29032258,12.3870968 C8.72774194,12.3870968 8.18580645,12.2735484 7.69548387,12.0670968 C7.19483871,11.8606452 6.74580645,11.556129 6.36903226,11.1793548 C5.85806452,10.6632258 5.48129032,10.0180645 5.29032258,9.29032258 C5.20774194,8.96 5.16129032,8.61419355 5.16129032,8.25806452 L5.16129032,6.19354839 C5.16129032,5.05290323 6.08516129,4.12903226 7.22580645,4.12903226 L9.29032258,4.12903226 L11.3548387,4.12903226 L11.3548387,4.43354839 C11.3548387,4.89806452 11.5406452,5.34709677 11.8709677,5.67741935 Z" id="Path" fill="#F0D0B4"></path>
                            </g>
                            <g id="Group" fill="#000000">
                                <circle id="Oval" cx="7.74193548" cy="7.74193548" r="1"></circle>
                                <circle id="Oval" cx="11.8709677" cy="7.74193548" r="1"></circle>
                                <path d="M11.7620645,10.1460645 L11.8162581,10.0371613 L10.8929032,9.57522581 L10.8387097,9.68464516 C10.6420645,10.0779355 10.2467097,10.3225806 9.80645161,10.3225806 C9.36619355,10.3225806 8.97083871,10.0779355 8.77419355,9.68464516 L8.72,9.57574194 L7.79664516,10.0376774 L7.85083871,10.1465806 C8.22348387,10.891871 8.97290323,11.3548387 9.80645161,11.3548387 C10.64,11.3548387 11.3894194,10.891871 11.7620645,10.1460645 L11.7620645,10.1460645 Z" id="Path"></path>
                                <path d="M10.6874839,5.82864516 C10.452129,5.59329032 10.3225806,5.28 10.3225806,4.9476129 L10.3225806,4.12903226 L9.29032258,4.12903226 L9.29032258,4.9476129 C9.29032258,5.55612903 9.52722581,6.128 9.95767742,6.55845161 L10.6874839,5.82864516 Z" id="Path"></path>
                                <path d="M12.752,5.82864516 C12.5166452,5.59329032 12.3870968,5.28 12.3870968,4.9476129 L12.3870968,4.12903226 L11.3548387,4.12903226 L11.3548387,4.9476129 C11.3548387,5.55612903 11.5917419,6.128 12.0221935,6.55845161 L12.752,5.82864516 Z" id="Path"></path>
                                <path d="M30.9677419,20.6451613 L28.9032258,20.6451613 L28.9032258,11.3548387 L29.9354839,11.3548387 C30.5047742,11.3548387 30.9677419,10.891871 30.9677419,10.3225806 L30.9677419,1.03225806 C30.9677419,0.462967742 30.5047742,0 29.9354839,0 L20.6451613,0 C20.075871,0 19.6129032,0.462967742 19.6129032,1.03225806 L19.6129032,10.3225806 L18.5806452,10.3225806 C18.0113548,10.3225806 17.5483871,10.7855484 17.5483871,11.3548387 L17.5483871,15.3971613 C16.8712258,14.884129 16.0660645,14.5295484 15.1814194,14.4030968 L12.2874839,13.9896774 L12.0061935,12.864 C13.0131613,12.3205161 13.7935484,11.4136774 14.1811613,10.3225806 L14.4516129,10.3225806 C15.5901935,10.3225806 16.516129,9.39664516 16.516129,8.25806452 C16.516129,7.79303226 16.356129,7.36825806 16.096,7.02296774 L16.2621935,6.52387097 C16.4304516,6.01703226 16.516129,5.49006452 16.516129,4.95690323 C16.516129,2.224 14.292129,0 11.5592258,0 L8.05316129,0 C5.32077419,0 3.09677419,2.224 3.09677419,4.95690323 C3.09677419,5.49006452 3.18245161,6.01754839 3.35070968,6.5243871 L3.51690323,7.02348387 C3.25677419,7.36825806 3.09677419,7.79303226 3.09677419,8.25806452 C3.09677419,9.39664516 4.02270968,10.3225806 5.16129032,10.3225806 L5.43225806,10.3225806 C5.81987097,11.4136774 6.59974194,12.3205161 7.60722581,12.864 L7.32593548,13.9896774 L4.432,14.4030968 C1.90503226,14.763871 0,16.96 0,19.5127742 L0,25.2903226 C0,27.1065806 1.34916129,28.6100645 3.09677419,28.8619355 L3.09677419,32 L16.516129,32 L16.516129,28.8619355 C18.2637419,28.6100645 19.6129032,27.1065806 19.6129032,25.2903226 L19.6129032,21.6774194 L20.6451613,21.6774194 L20.6451613,30.9677419 C20.6451613,31.5370323 21.108129,32 21.6774194,32 L30.9677419,32 C31.5370323,32 32,31.5370323 32,30.9677419 L32,21.6774194 C32,21.108129 31.5370323,20.6451613 30.9677419,20.6451613 L30.9677419,20.6451613 Z M23.7419355,1.03225806 L24.7741935,1.03225806 L24.7741935,3.09677419 L23.7419355,3.09677419 L23.7419355,1.03225806 Z M25.8064516,1.03225806 L26.8387097,1.03225806 L26.8387097,3.09677419 L25.8064516,3.09677419 L25.8064516,1.03225806 Z M20.6451613,1.03225806 L22.7096774,1.03225806 L22.7096774,4.12903226 L27.8709677,4.12903226 L27.8709677,1.03225806 L29.9354839,1.03225806 L29.9354839,10.3225806 L20.6451613,10.3225806 L20.6451613,1.03225806 Z M21.6774194,11.3548387 L22.7096774,11.3548387 L22.7096774,13.4193548 L21.6774194,13.4193548 L21.6774194,11.3548387 Z M23.7419355,11.3548387 L24.7741935,11.3548387 L24.7741935,13.4193548 L23.7419355,13.4193548 L23.7419355,11.3548387 Z M12.6637419,15.0864516 L12.0707097,16.8660645 L10.7251613,16.3277419 L12.0536774,14.9992258 L12.6637419,15.0864516 Z M14.4516129,9.29032258 L14.4211613,9.29032258 C14.4402581,9.12051613 14.4516129,8.94864516 14.4516129,8.77419355 L14.4516129,7.22580645 C15.0209032,7.22580645 15.483871,7.68877419 15.483871,8.25806452 C15.483871,8.82735484 15.0209032,9.29032258 14.4516129,9.29032258 Z M5.16129032,9.29032258 C4.592,9.29032258 4.12903226,8.82735484 4.12903226,8.25806452 C4.12903226,7.68877419 4.592,7.22580645 5.16129032,7.22580645 L5.16129032,8.77419355 C5.16129032,8.94864516 5.17264516,9.12051613 5.19174194,9.29032258 L5.16129032,9.29032258 Z M6.19354839,8.77419355 L6.19354839,6.70967742 C6.19354839,5.856 6.88825806,5.16129032 7.74193548,5.16129032 L8.25806452,5.16129032 L8.25806452,4.12903226 L7.74193548,4.12903226 C6.496,4.12903226 5.45341935,5.01729032 5.21341935,6.19354839 L5.16129032,6.19354839 C4.88516129,6.19354839 4.62193548,6.25032258 4.38090323,6.34890323 L4.33083871,6.19819355 C4.19664516,5.79612903 4.12903226,5.37909677 4.12903226,4.95690323 C4.12903226,2.79277419 5.88954839,1.03225806 8.05367742,1.03225806 L11.5597419,1.03225806 C13.7233548,1.03225806 15.483871,2.79277419 15.483871,4.95690323 C15.483871,5.37909677 15.4162581,5.79664516 15.2820645,6.19767742 L15.2314839,6.34890323 C14.9909677,6.25032258 14.7277419,6.19354839 14.4516129,6.19354839 L14.4516129,5.67741935 L13.4193548,5.67741935 L13.4193548,8.77419355 C13.4193548,10.7659355 11.7981935,12.3870968 9.80645161,12.3870968 C7.81470968,12.3870968 6.19354839,10.7659355 6.19354839,8.77419355 Z M9.80645161,13.4193548 C10.2332903,13.4193548 10.6451613,13.3569032 11.0384516,13.2485161 L11.2996129,14.2931613 L9.80645161,15.7863226 L8.31329032,14.2931613 L8.57445161,13.2485161 C8.96774194,13.3569032 9.3796129,13.4193548 9.80645161,13.4193548 Z M7.55922581,14.9987097 L8.88774194,16.3272258 L7.54219355,16.8655484 L6.94916129,15.0859355 L7.55922581,14.9987097 Z M4.12903226,28.9032258 L5.16129032,28.9032258 L5.16129032,30.9677419 L4.12903226,30.9677419 L4.12903226,28.9032258 Z M9.29032258,24.7741935 C9.8596129,24.7741935 10.3225806,25.2371613 10.3225806,25.8064516 C10.3225806,26.3757419 9.8596129,26.8387097 9.29032258,26.8387097 L8.25806452,26.8387097 L8.25806452,24.7741935 L9.29032258,24.7741935 Z M8.16309677,27.8709677 L9.29032258,27.8709677 C10.4289032,27.8709677 11.3548387,26.9450323 11.3548387,25.8064516 C11.3548387,24.667871 10.4289032,23.7419355 9.29032258,23.7419355 L6.19354839,23.7419355 L6.19354839,20.6451613 L7.22580645,20.6451613 L7.22580645,21.6774194 C7.22580645,22.2467097 7.68877419,22.7096774 8.25806452,22.7096774 L11.3548387,22.7096774 C11.924129,22.7096774 12.3870968,22.2467097 12.3870968,21.6774194 L12.3870968,20.6451613 L13.4193548,20.6451613 L13.4193548,30.9677419 L6.19354839,30.9677419 L6.19354839,28.9032258 L6.70967742,28.9032258 C7.38167742,28.9032258 7.94941935,28.4701935 8.16309677,27.8709677 Z M8.25806452,20.6451613 L11.3548387,20.6451613 L11.3548387,21.6774194 L8.25806452,21.6774194 L8.25806452,20.6451613 Z M14.4516129,30.9677419 L14.4516129,28.9032258 L15.483871,28.9032258 L15.483871,30.9677419 L14.4516129,30.9677419 Z M18.5806452,25.2903226 C18.5806452,26.7132903 17.4229677,27.8709677 16,27.8709677 L14.4516129,27.8709677 L14.4516129,24.7741935 L17.5483871,24.7741935 L17.5483871,23.7419355 L16.516129,23.7419355 L16.516129,19.6129032 L15.483871,19.6129032 L15.483871,23.7419355 L14.4516129,23.7419355 L14.4516129,20.6451613 C14.4516129,20.075871 13.9886452,19.6129032 13.4193548,19.6129032 L6.19354839,19.6129032 C5.62425806,19.6129032 5.16129032,20.075871 5.16129032,20.6451613 L5.16129032,23.7419355 L4.12903226,23.7419355 L4.12903226,19.6129032 L3.09677419,19.6129032 L3.09677419,23.7419355 L2.06451613,23.7419355 L2.06451613,24.7741935 L7.22580645,24.7741935 L7.22580645,27.3548387 C7.22580645,27.6397419 6.99458065,27.8709677 6.70967742,27.8709677 L3.61290323,27.8709677 C2.18993548,27.8709677 1.03225806,26.7132903 1.03225806,25.2903226 L1.03225806,19.5127742 C1.03225806,17.4709677 2.5563871,15.7140645 4.57754839,15.4255484 L5.91070968,15.2350968 L6.90890323,18.2312258 L9.80645161,17.072 L12.7034839,18.2307097 L13.7016774,15.2345806 L15.0348387,15.4250323 C17.0565161,15.7135484 18.5806452,17.4709677 18.5806452,19.5127742 L18.5806452,25.2903226 Z M19.6129032,20.6451613 L19.6129032,19.5127742 C19.6129032,18.3700645 19.2289032,17.3006452 18.5806452,16.4335484 L18.5806452,11.3548387 L20.6451613,11.3548387 L20.6451613,14.4516129 L25.8064516,14.4516129 L25.8064516,11.3548387 L27.8709677,11.3548387 L27.8709677,20.6451613 L19.6129032,20.6451613 Z M24.7741935,21.6774194 L25.8064516,21.6774194 L25.8064516,23.7419355 L24.7741935,23.7419355 L24.7741935,21.6774194 Z M26.8387097,21.6774194 L27.8709677,21.6774194 L27.8709677,23.7419355 L26.8387097,23.7419355 L26.8387097,21.6774194 Z M30.9677419,30.9677419 L21.6774194,30.9677419 L21.6774194,21.6774194 L23.7419355,21.6774194 L23.7419355,24.7741935 L28.9032258,24.7741935 L28.9032258,21.6774194 L30.9677419,21.6774194 L30.9677419,30.9677419 Z" id="Shape"></path>
                            </g>
                        </g>
                    </g>
                </g>
            </g>
        </g>
    </g>
</svg>