<?xml version="1.0" encoding="UTF-8"?>
<svg width="32px" height="32px" viewBox="0 0 32 32" version="1.1" xmlns="http://www.w3.org/2000/svg" xmlns:xlink="http://www.w3.org/1999/xlink">
    <title>trading</title>
    <g id="Wizard-3" stroke="none" stroke-width="1" fill="none" fill-rule="evenodd">
        <g transform="translate(-586.000000, -722.000000)" fill-rule="nonzero" id="1">
            <g transform="translate(199.000000, 634.000000)">
                <g id="Group-2" transform="translate(20.000000, 20.000000)">
                    <g id="Group" transform="translate(357.000000, 58.000000)">
                        <g transform="translate(10.000000, 10.000000)" id="open-sign">
                            <rect id="Rectangle" fill="#4EC4B5" x="0.485647059" y="13.9689412" width="31.028437" height="17.5451429" rx="8.77257143"></rect>
                            <polygon id="Path" fill="#F9CC4E" points="2.94131092 16.4243361 29.058958 16.4243361 29.058958 29.0586891 2.94131092 29.0586891"></polygon>
                            <circle id="Oval" fill="#4EC4B5" cx="16" cy="2.93835294" r="2.45243697"></circle>
                            <g id="Group" fill="#142850">
                                <path d="M8.69862185,20.5243697 C7.48134434,20.5565555 6.51765268,21.5641219 6.53965833,22.781626 C6.56166398,23.9991301 7.56113661,24.9712134 8.77878215,24.9593894 C9.99642769,24.9475655 10.9768347,23.9562565 10.9751953,22.7385546 C10.9409748,21.5058523 9.93179898,20.5243697 8.69862185,20.5243697 L8.69862185,20.5243697 Z M8.69862185,24.1231597 C8.13574126,24.1425493 7.6173705,23.8185306 7.38819666,23.3040504 C7.15902282,22.7895702 7.26486801,22.1874962 7.65577001,21.7820259 C8.04667201,21.3765557 8.64447202,21.2487608 9.16698987,21.4589646 C9.68950772,21.6691683 10.0322687,22.1753415 10.0334939,22.7385546 C10.0369194,23.4854265 9.44511988,24.0992814 8.69862185,24.1231597 Z" id="Shape"></path>
                                <path d="M14.2045042,20.5983193 L12.2772437,20.5983193 L12.2772437,24.8838992 L13.1939496,24.8838992 L13.1939496,23.4931092 L14.2045042,23.4931092 C15.1335798,23.4931092 15.819563,22.8942521 15.819563,22.0461176 C15.819563,21.1979832 15.1335798,20.5983193 14.2045042,20.5983193 Z M14.1044706,22.6503529 L13.1939496,22.6503529 L13.1939496,21.4402689 L14.1044706,21.4402689 C14.5597311,21.4402689 14.8716639,21.6771765 14.8716639,22.045042 C14.8716639,22.4129076 14.5597311,22.6511597 14.1044706,22.6511597 L14.1044706,22.6503529 Z" id="Shape"></path>
                                <polygon id="Path" points="17.0159328 24.8838992 20.3151597 24.8838992 20.3151597 24.0545882 17.9388235 24.0545882 17.9388235 23.1128739 20.0906218 23.1128739 20.0906218 22.2832941 17.9388235 22.2832941 17.9388235 21.4287059 20.3151597 21.4287059 20.3151597 20.5991261 17.0159328 20.5991261"></polygon>
                                <polygon id="Path" points="24.654521 23.3683361 22.5901176 20.5991261 21.6734118 20.5991261 21.6734118 24.8838992 22.5901176 24.8838992 22.5901176 22.114958 24.654521 24.8838992 25.5776807 24.8838992 25.5776807 20.5991261 24.654521 20.5991261"></polygon>
                                <path d="M0.485915966,26.4661513 C0.745814672,26.4661513 0.956504202,26.2554617 0.956504202,25.995563 L0.956504202,24.785479 C0.956504202,24.5255803 0.745814672,24.3148908 0.485915966,24.3148908 C0.226017261,24.3148908 0.0153276541,24.5255803 0.0153276541,24.785479 L0.0153276541,25.995563 C0.0152563387,26.1203927 0.0648131019,26.2401301 0.153080996,26.328398 C0.24134889,26.4166659 0.361086334,26.4662227 0.485915966,26.4661513 L0.485915966,26.4661513 Z" id="Path"></path>
                                <path d="M31.514084,18.7794286 C31.2542468,18.7795769 31.0436441,18.9901796 31.0434958,19.2500168 L31.0434958,29.5074958 C31.0426065,30.3554365 30.3554365,31.0426065 29.5074958,31.0434958 L2.4925042,31.0434958 C1.64456346,31.0426065 0.957393495,30.3554365 0.956504202,29.5074958 L0.956504202,28.2108235 C0.956504202,27.9509248 0.745814672,27.7402353 0.485915966,27.7402353 C0.226017261,27.7402353 0.0153277311,27.9509248 0.0153277311,28.2108235 L0.0153277311,29.5074958 C0.0168097877,30.8749882 1.12501177,31.9831902 2.4925042,31.9846723 L29.5074958,31.9846723 C30.8749882,31.9831902 31.9831902,30.8749882 31.9846723,29.5074958 L31.9846723,19.2500168 C31.9846723,18.9901181 31.7739827,18.7794286 31.514084,18.7794286 L31.514084,18.7794286 Z" id="Path"></path>
                                <path d="M29.5074958,13.4991597 L27.4672941,13.4991597 L18.3889748,4.61714286 C19.2449298,3.40307674 19.0541828,1.74008735 17.9455647,0.751360219 C16.8369466,-0.237366908 15.1630534,-0.237366908 14.0544353,0.751360219 C12.9458172,1.74008735 12.7550702,3.40307674 13.6110252,4.61714286 L4.53270588,13.4991597 L2.4925042,13.4991597 C1.12528277,13.500789 0.0172538872,14.6085773 0.0153277311,15.9757983 L0.0153277311,22.458084 C0.0153277311,22.7179827 0.226017264,22.9286723 0.485915966,22.9286723 C0.745814668,22.9286723 0.956504196,22.7179827 0.956504202,22.458084 L0.956504202,15.9757983 C0.957837548,15.128129 1.64483443,14.4413726 2.4925042,14.4403361 L29.5074958,14.4403361 C30.35548,14.4413736 31.0426068,15.1286206 31.0434958,15.976605 L31.0434958,17.1866891 C31.0434958,17.4465878 31.2541853,17.6572773 31.514084,17.6572773 C31.7739827,17.6572773 31.9846723,17.4465878 31.9846723,17.1866891 L31.9846723,15.976605 C31.9831905,14.6090689 30.8750317,13.5007899 29.5074958,13.4991597 L29.5074958,13.4991597 Z M16,0.956504202 C17.0945448,0.956504202 17.9818487,1.84380811 17.9818487,2.93835294 C17.9818487,4.03289778 17.0945448,4.92020168 16,4.92020168 C14.9054552,4.92020168 14.0181513,4.03289778 14.0181513,2.93835294 C14.0193369,1.84429959 14.9059467,0.957689847 16,0.956504202 L16,0.956504202 Z M14.2701176,5.28887395 C15.2970446,6.05225672 16.7029554,6.05225672 17.7298824,5.28887395 L26.1214118,13.4991597 L5.87858824,13.4991597 L14.2701176,5.28887395 Z" id="Shape"></path>
                                <path d="M2.94131092,29.5295462 L29.0586891,29.5295462 C29.3185878,29.5295462 29.5292774,29.3188567 29.5292774,29.058958 L29.5292774,16.424605 C29.5292774,16.2997754 29.4797919,16.180038 29.391524,16.0917701 C29.3032562,16.0035022 29.1835187,15.9540167 29.0586891,15.9540167 L2.94131092,15.9540167 C2.81648129,15.9540167 2.69674385,16.0035022 2.60847595,16.0917701 C2.52020806,16.180038 2.47072261,16.2997754 2.47072261,16.424605 L2.47072261,29.058958 C2.47072261,29.3188567 2.68141222,29.5295462 2.94131092,29.5295462 L2.94131092,29.5295462 Z M3.41189916,16.8951933 L28.5881008,16.8951933 L28.5881008,28.5883697 L3.41189916,28.5883697 L3.41189916,16.8951933 Z" id="Shape"></path>
                            </g>
                        </g>
                    </g>
                </g>
            </g>
        </g>
    </g>
</svg>