<?xml version="1.0" encoding="UTF-8"?>
<svg width="39px" height="32px" viewBox="0 0 39 32" version="1.1" xmlns="http://www.w3.org/2000/svg" xmlns:xlink="http://www.w3.org/1999/xlink">
    <title>vehicle</title>
    <g id="Wizard-4" stroke="none" stroke-width="1" fill="none" fill-rule="evenodd">
        <g transform="translate(-441.000000, -1451.000000)" fill-rule="nonzero" id="1">
            <g transform="translate(199.000000, 1363.000000)">
                <g id="Group-2" transform="translate(20.000000, 20.000000)">
                    <g id="Group" transform="translate(47.000000, 58.000000)">
                        <g transform="translate(175.000000, 10.000000)" id="heavy-vehicle">
                            <g id="Group" transform="translate(0.615385, 0.615385)">
                                <path d="M36.9230769,19.6923077 L36.9230769,24.6153846 C36.9230769,25.2923077 36.3692308,25.8461538 35.6923077,25.8461538 L34.4615385,25.8461538 L34.4615385,23.4461538 C34.4615385,22.0553846 34.0061538,20.7692308 33.2307692,19.7353846 L33.2307692,17.2307692 L36.9230769,17.2307692 L36.9230769,19.6923077 Z" id="Path" fill="#FFEAA7"></path>
                                <path d="M36.9230769,17.2307692 L33.2307692,17.2307692 L33.2307692,13.5384615 C35.2676923,13.5384615 36.9230769,15.1938462 36.9230769,17.2307692 Z" id="Path" fill="#FFEAA7"></path>
                                <path d="M16,7.14461538 L16,12.72 L14.0615385,13.1507692 C13.8769231,13.1938462 13.7046154,13.2492308 13.5384615,13.3292308 L13.5384615,5.72307692 C13.5384615,5.28 13.8953846,4.92307692 14.3384615,4.92307692 C14.6092308,4.92307692 14.8615385,5.05846154 15.0092308,5.28 L15.7907692,6.46153846 C15.9261538,6.65846154 16,6.89846154 16,7.14461538 Z" id="Path" fill="#CCD1D9"></path>
                                <path d="M33.8461538,0.615384615 L33.8461538,1.84615385 C33.8461538,2.18461538 33.5692308,2.46153846 33.2307692,2.46153846 L32,2.46153846 L24.6153846,2.46153846 L19.6923077,2.46153846 C19.3538462,2.46153846 19.0769231,2.18461538 19.0769231,1.84615385 L19.0769231,0.615384615 C19.0769231,0.276923077 19.3538462,0 19.6923077,0 L33.2307692,0 C33.5692308,0 33.8461538,0.276923077 33.8461538,0.615384615 Z" id="Path" fill="#FCD770"></path>
                                <path d="M31.5323077,11.5569231 L25.5753846,11.0769231 C25.1938462,11.0769231 24.8430769,11.2492308 24.6153846,11.5384615 L24.6153846,2.46153846 L32,2.46153846 L32,11.6553846 C31.8523077,11.6061538 31.6984615,11.5692308 31.5323077,11.5569231 L31.5323077,11.5569231 Z" id="Path" fill="#FFEAA7"></path>
                                <path d="M19.2553846,13.3846154 L19.6923077,16 L23.3846154,16 L24.3815385,12.0061538 C24.4246154,11.8276923 24.5046154,11.6676923 24.6153846,11.5384615 C24.8430769,11.2492308 25.1938462,11.0769231 25.5753846,11.0769231 L31.5323077,11.5569231 C31.6984615,11.5692308 31.8523077,11.6061538 32,11.6553846 C32.72,11.9076923 33.2307692,12.5969231 33.2307692,13.3969231 L33.2307692,13.5384615 L33.2307692,17.2307692 L33.2307692,19.7353846 C33.0523077,19.4892308 32.8553846,19.2615385 32.64,19.0523077 C31.52,17.9261538 29.9630769,17.2307692 28.2461538,17.2307692 C27.4707692,17.2307692 26.7076923,17.3723077 25.9876923,17.6553846 L24.3815385,18.2769231 L17.2676923,21.0461538 L11.8830769,17.9076923 L12.1476923,15.3292308 C12.2215385,14.4492308 12.7630769,13.6923077 13.5384615,13.3292308 C13.7046154,13.2492308 13.8769231,13.1938462 14.0615385,13.1507692 L16,12.72 L17.7107692,12.3384615 C17.7538462,12.3323077 17.7969231,12.32 17.8461538,12.3138462 C17.8953846,12.3076923 17.9446154,12.3076923 17.9876923,12.3076923 C18.4430769,12.3076923 18.8553846,12.5476923 19.0769231,12.9230769 C19.1692308,13.0584615 19.2246154,13.2184615 19.2553846,13.3846154 L19.2553846,13.3846154 Z" id="Path" fill="#FCD770"></path>
                                <path d="M29.5384615,30.7692308 L15.3846154,30.7692308 C17.5569231,30.7692308 19.3476923,29.1630769 19.6492308,27.0769231 L24.7692308,27.0769231 C25.3169231,29.2 27.2430769,30.7692308 29.5384615,30.7692308 Z" id="Path" fill="#CCD1D9"></path>
                                <path d="M33.2307692,19.7353846 C33.0523077,19.4892308 32.8553846,19.2615385 32.64,19.0523077 C31.52,17.9261538 29.9630769,17.2307692 28.2461538,17.2307692 C27.4707692,17.2307692 26.7076923,17.3723077 25.9876923,17.6553846 L24.3815385,18.2769231 L17.2676923,21.0461538 L23.3846154,24.6153846 L24.7692308,24.6153846 C25.0338462,23.5815385 25.6246154,22.6830769 26.4307692,22.0307692 C27.2738462,21.3353846 28.3569231,20.9230769 29.5384615,20.9230769 C32.2584615,20.9230769 34.4615385,23.1261538 34.4615385,25.8461538 L34.4615385,23.4461538 C34.4615385,22.0553846 34.0061538,20.7692308 33.2307692,19.7353846 L33.2307692,19.7353846 Z" id="Path" fill="#CCD1D9"></path>
                                <path d="M25.2307692,18.4615385 C26.2523077,18.4615385 27.0769231,19.2861538 27.0769231,20.3076923 C27.0769231,20.9476923 26.7569231,21.5076923 26.2646154,21.84 C25.9692308,22.0369231 25.6123077,22.1538462 25.2307692,22.1538462 C24.2092308,22.1538462 23.3846154,21.3292308 23.3846154,20.3076923 C23.3846154,19.5446154 23.8461538,18.8861538 24.5107692,18.6092308 C24.7323077,18.5107692 24.9723077,18.4615385 25.2307692,18.4615385 Z" id="Path" fill="#FF826E"></path>
                                <path d="M5.33538462,28.3076923 L3.69230769,30.7692308 L0,30.7692308 L0,29.5815385 C0,29.1692308 0.203076923,28.7876923 0.547692308,28.56 L1.66769231,27.8092308 C1.78461538,27.7353846 1.87076923,27.6246154 1.91384615,27.4892308 L2.17846154,26.6892308 C2.35076923,26.1846154 2.81846154,25.8461538 3.34769231,25.8461538 L4.30769231,25.8461538 L6.15384615,27.0769231 L5.33538462,28.3076923 Z" id="Path" fill="#AAB2BD"></path>
                                <path d="M8.61538462,27.0769231 L8.61538462,30.1538462 C8.61538462,30.4923077 8.33846154,30.7692308 8,30.7692308 L3.69230769,30.7692308 L5.33538462,28.3076923 L6.15384615,27.0769231 L4.30769231,25.8461538 L6.50461538,15.9692308 C6.65846154,15.2676923 7.28,14.7692308 8,14.7692308 C8.33846154,14.7692308 8.61538462,15.0461538 8.61538462,15.3846154 L8.61538462,16 L8.61538462,18.4615385 L8.61538462,24.6153846 L8.61538462,27.0769231 Z" id="Path" fill="#CCD1D9"></path>
                                <polygon id="Path" fill="#AAB2BD" points="23.3846154 24.6153846 19.1630769 24.6153846 14.9784615 22.1723077 11.6492308 20.2338462 11.6492308 20.2276923 8.61538462 18.4615385 8.61538462 16 11.8830769 17.9076923 17.2676923 21.0461538"></polygon>
                                <path d="M11.12,27.0769231 L19.6492308,27.0769231 C19.3476923,29.1630769 17.5569231,30.7692308 15.3846154,30.7692308 C13.2123077,30.7692308 11.4215385,29.1630769 11.12,27.0769231 Z" id="Path" fill="#838F9B"></path>
                                <path d="M19.1630769,24.6153846 L11.4892308,24.6153846 C12.1292308,23.2738462 13.4338462,22.32 14.9784615,22.1723077 L19.1630769,24.6153846 Z" id="Path" fill="#838F9B"></path>
                                <path d="M29.5384615,20.9230769 C32.2584615,20.9230769 34.4615385,23.1261538 34.4615385,25.8461538 C34.4615385,28.5661538 32.2584615,30.7692308 29.5384615,30.7692308 C27.2430769,30.7692308 25.3169231,29.2 24.7692308,27.0769231 L30.1538462,27.0769231 C30.4923077,27.0769231 30.7692308,26.8 30.7692308,26.4615385 L30.7692308,25.2307692 C30.7692308,24.8923077 30.4923077,24.6153846 30.1538462,24.6153846 L24.7692308,24.6153846 C25.0338462,23.5815385 25.6246154,22.6830769 26.4307692,22.0307692 C27.2738462,21.3353846 28.3569231,20.9230769 29.5384615,20.9230769 Z" id="Path" fill="#838F9B"></path>
                                <path d="M11.2,24.6153846 L11.4892308,24.6153846 L19.1630769,24.6153846 L23.3846154,24.6153846 L24.7692308,24.6153846 L30.1538462,24.6153846 C30.4923077,24.6153846 30.7692308,24.8923077 30.7692308,25.2307692 L30.7692308,26.4615385 C30.7692308,26.8 30.4923077,27.0769231 30.1538462,27.0769231 L24.7692308,27.0769231 L19.6492308,27.0769231 L11.12,27.0769231 L8.61538462,27.0769231 L8.61538462,24.6153846 L11.2,24.6153846 Z" id="Path" fill="#AAB2BD"></path>
                                <polygon id="Path" fill="#69D6F4" points="27.0769231 4.92307692 29.5384615 4.92307692 29.5384615 8.61538462 27.0769231 8.61538462"></polygon>
                            </g>
                            <g id="Group" fill="#000000">
                                <path d="M34.4196923,13.5815385 C34.2904615,12.8652308 33.8443077,12.2547692 33.2307692,11.8941538 L33.2307692,3.69230769 L33.8461538,3.69230769 C34.5249231,3.69230769 35.0769231,3.14030769 35.0769231,2.46153846 L35.0769231,1.23076923 C35.0769231,0.552 34.5249231,0 33.8461538,0 L20.3076923,0 C19.6289231,0 19.0769231,0.552 19.0769231,1.23076923 L19.0769231,2.46153846 C19.0769231,2.88 19.288,3.24923077 19.608,3.472 L17.9316923,12.4110769 L17.2307692,12.5661538 L17.2307692,7.75692308 C17.2307692,7.392 17.1236923,7.03815385 16.9206154,6.73292308 L16.1347692,5.55384615 C15.8713846,5.15876923 15.4307692,4.92307692 14.9556923,4.92307692 C14.1741538,4.92307692 13.5384615,5.55876923 13.5384615,6.34030769 L13.5384615,13.5907692 C12.7630769,14.0929231 12.2356923,14.9230769 12.1476923,15.8818462 L11.9827692,17.5083077 L9.84615385,16.2621538 L9.84615385,16 C9.84615385,15.3212308 9.29415385,14.7692308 8.61538462,14.7692308 C7.6,14.7692308 6.73661538,15.4615385 6.51692308,16.4523077 L4.42953846,25.8461538 L3.96369231,25.8461538 C3.168,25.8461538 2.464,26.3532308 2.21230769,27.1083077 L1.94461538,27.9126154 L0.822153846,28.6609231 C0.307076923,29.0043077 -3.68935651e-15,29.5784615 -3.68935651e-15,30.1969231 L-3.68935651e-15,32 L8.61538462,32 C9.29415385,32 9.84615385,31.448 9.84615385,30.7692308 L9.84615385,28.3076923 L11.2356923,28.3076923 C11.7895385,30.4455385 13.7476923,32 16,32 L30.1538462,32 C33,32 35.3489231,29.8418462 35.656,27.0769231 L36.3076923,27.0769231 C37.3255385,27.0769231 38.1538462,26.2486154 38.1538462,25.2307692 L38.1538462,17.8461538 C38.1538462,15.6658462 36.5243077,13.8633846 34.4196923,13.5815385 Z M1.23076923,30.7692308 L1.23076923,30.1969231 C1.23076923,29.9907692 1.33292308,29.7993846 1.50461538,29.6849231 L2.62830769,28.936 C2.85415385,28.7846154 3.02584615,28.5593846 3.11138462,28.3015385 L3.37969231,27.4972308 C3.464,27.2461538 3.69907692,27.0769231 3.96369231,27.0769231 L4.73661538,27.0769231 L5.91569231,27.8627692 L5.61969231,28.3076923 L4.30769231,28.3076923 L4.30769231,29.5384615 L4.79876923,29.5384615 L3.97846154,30.7692308 L1.23076923,30.7692308 Z M8.61538462,30.7692308 L5.45723077,30.7692308 L7.62276923,27.5218462 L5.61538462,26.1833846 L7.71876923,16.7193846 C7.81230769,16.2953846 8.18153846,16 8.61538462,16 L8.61538462,30.7692308 Z M36.8609231,17.2307692 L34.4615385,17.2307692 L34.4615385,14.8313846 C35.6652308,15.0769231 36.6153846,16.0270769 36.8609231,17.2307692 Z M24.1661538,24.6153846 L19.2935385,21.7729231 L23.5286154,20.1255385 C23.4418462,20.3772308 23.3846154,20.6424615 23.3846154,20.9230769 C23.3846154,22.1846154 24.3421538,23.2153846 25.5667692,23.3563077 C25.3058462,23.7421538 25.0898462,24.1630769 24.9310769,24.6153846 L24.1661538,24.6153846 Z M25.8461538,22.1538462 C25.1673846,22.1538462 24.6153846,21.6018462 24.6153846,20.9230769 C24.6153846,20.2443077 25.1673846,19.6923077 25.8461538,19.6923077 C26.5249231,19.6923077 27.0769231,20.2443077 27.0769231,20.9230769 C27.0769231,21.6018462 26.5249231,22.1538462 25.8461538,22.1538462 Z M27.0258462,18.776 C27.6166154,18.5710769 28.2313846,18.4615385 28.8590769,18.4615385 C31.5212308,18.4615385 33.7507692,20.3292308 34.3181538,22.8215385 C33.3021538,21.6609231 31.8141538,20.9230769 30.1538462,20.9230769 C29.4978462,20.9230769 28.8646154,21.04 28.2744615,21.2529231 C28.2892308,21.144 28.3076923,21.0363077 28.3076923,20.9230769 C28.3076923,19.9950769 27.7858462,19.1956923 27.0258462,18.776 Z M32,11.5421538 L26.192,11.0769231 C26.0738462,11.0769231 25.9587692,11.0904615 25.8461538,11.112 L25.8461538,3.69230769 L32,3.69230769 L32,11.5421538 Z M22.3341538,13.3581538 L23.2043077,12.488 L20.7427692,10.0264615 L19.8726154,10.8966154 L20.6683077,11.6923077 L19.6990769,12.6615385 C19.5427692,12.5507692 19.3710769,12.4627692 19.1852308,12.4036923 L20.8178462,3.69230769 L24.6153846,3.69230769 L24.6153846,11.9698462 C24.5218462,12.1243077 24.4467692,12.2929231 24.4006154,12.4756923 L23.5193846,16 L20.8289231,16 L20.4787692,13.8966154 C20.4664615,13.8215385 20.4430769,13.7507692 20.4221538,13.6787692 L21.5384615,12.5624615 L22.3341538,13.3581538 Z M20.3076923,1.23076923 L33.8461538,1.23076923 L33.8467692,2.46153846 L20.3076923,2.46153846 L20.3076923,1.23076923 Z M15.1107692,6.23692308 L15.8966154,7.416 C15.9636923,7.51753846 16,7.63569231 16,7.75692308 L16,12.8393846 L14.7692308,13.1126154 L14.7692308,6.34030769 C14.7698462,6.17476923 15.0178462,6.09907692 15.1107692,6.23692308 Z M13.3729231,16 C13.4461538,15.1963077 14.0246154,14.5390769 14.8110769,14.3643077 L18.4584615,13.5544615 C18.8196923,13.4732308 19.2024615,13.7261538 19.2646154,14.0990769 L19.7864615,17.2307692 L24.4806154,17.2307692 L25.5944615,12.7741538 C25.6633846,12.4996923 25.9089231,12.3076923 26.1427692,12.3058462 L32.0990769,12.7846154 C32.7341538,12.8356923 33.2313846,13.3741538 33.2313846,14.0116923 L33.2313846,18.8184615 C32.0449231,17.8283077 30.5206154,17.2307692 28.8590769,17.2307692 C28.0086154,17.2307692 27.1753846,17.3870769 26.3827692,17.6953846 L17.936,20.9803077 L13.152,18.1895385 L13.3729231,16 Z M21.7236923,24.6153846 L19.9464615,24.6153846 L9.84615385,18.7236923 L9.84615385,17.6867692 L21.7236923,24.6153846 Z M9.84615385,20.1483077 L11.6104615,21.1772308 L11.2609231,24.6153846 L9.84615385,24.6153846 L9.84615385,20.1483077 Z M12.6098462,23.5175385 L12.7784615,21.8590769 L14.0190769,22.5827692 C13.4990769,22.8123077 13.0215385,23.1261538 12.6098462,23.5175385 L12.6098462,23.5175385 Z M15.4713846,23.4295385 L17.504,24.6153846 L13.256,24.6153846 C13.8289231,23.9790769 14.6116923,23.5538462 15.4713846,23.4295385 L15.4713846,23.4295385 Z M9.84615385,25.8461538 L30.7692308,25.8461538 L30.7692308,27.0769231 L9.84615385,27.0769231 L9.84615385,25.8461538 Z M12.5230769,28.3076923 L19.4769231,28.3076923 C18.9636923,29.7495385 17.5784615,30.7692308 16,30.7692308 C14.4215385,30.7692308 13.0369231,29.7495385 12.5230769,28.3076923 L12.5230769,28.3076923 Z M19.2443077,30.7692308 C19.9723077,30.1298462 20.5126154,29.2793846 20.7643077,28.3076923 L24.9310769,28.3076923 C25.2787692,29.2941538 25.8923077,30.1372308 26.6756923,30.7692308 L19.2443077,30.7692308 Z M30.1538462,30.7692308 C28.4658462,30.7692308 26.9686154,29.7870769 26.2670769,28.3076923 L30.7692308,28.3076923 C31.448,28.3076923 32,27.7556923 32,27.0769231 L32,25.8461538 C32,25.1673846 31.448,24.6153846 30.7692308,24.6153846 L26.2670769,24.6153846 C26.9686154,23.136 28.4658462,22.1538462 30.1538462,22.1538462 C32.5286154,22.1538462 34.4615385,24.0861538 34.4615385,26.4615385 C34.4615385,28.8369231 32.5286154,30.7692308 30.1538462,30.7692308 Z M36.3076923,25.8461538 L35.6923077,25.8461538 L35.6923077,24.064 C35.6923077,22.6135385 35.2350769,21.2701538 34.4615385,20.1630769 L34.4615385,18.4615385 L36.9230769,18.4615385 L36.9230769,19.6923077 L35.6923077,19.6923077 L35.6923077,20.9230769 L36.9230769,20.9230769 L36.9230769,25.2307692 C36.9230769,25.5698462 36.6473846,25.8461538 36.3076923,25.8461538 Z" id="Shape"></path>
                                <polygon id="Path" points="14.7692308 16 16 16 16 17.2307692 14.7692308 17.2307692"></polygon>
                                <polygon id="Path" points="17.2307692 16 18.4615385 16 18.4615385 17.2307692 17.2307692 17.2307692"></polygon>
                                <polygon id="Path" points="16 18.4615385 17.2307692 18.4615385 17.2307692 19.6923077 16 19.6923077"></polygon>
                                <path d="M30.7692308,4.92307692 L27.0769231,4.92307692 L27.0769231,9.84615385 L30.7692308,9.84615385 L30.7692308,4.92307692 Z M29.5384615,8.61538462 L28.3076923,8.61538462 L28.3076923,6.15384615 L29.5384615,6.15384615 L29.5384615,8.61538462 Z" id="Shape"></path>
                            </g>
                        </g>
                    </g>
                </g>
            </g>
        </g>
    </g>
</svg>